<svg xmlns="http://www.w3.org/2000/svg" xmlns:xlink="http://www.w3.org/1999/xlink" width="500" zoomAndPan="magnify" viewBox="0 0 375 374.999991" height="500" preserveAspectRatio="xMidYMid meet" version="1.0"><defs><clipPath id="4524f39889"><path d="M 94.757812 148.351562 L 280.570312 148.351562 L 280.570312 278.582031 L 94.757812 278.582031 Z M 94.757812 148.351562 " clip-rule="nonzero"/></clipPath><clipPath id="6baa0df33f"><path d="M 149.445312 215.148438 L 239.46875 215.148438 L 239.46875 284.296875 L 149.445312 284.296875 Z M 149.445312 215.148438 " clip-rule="nonzero"/></clipPath><clipPath id="bf8c0810ec"><path d="M 161 90.796875 L 209 90.796875 L 209 145 L 161 145 Z M 161 90.796875 " clip-rule="nonzero"/></clipPath><clipPath id="43ef913761"><path d="M 177 90.796875 L 209 90.796875 L 209 117 L 177 117 Z M 177 90.796875 " clip-rule="nonzero"/></clipPath><clipPath id="a255ff47a0"><path d="M 219.699219 257.578125 L 264.710938 257.578125 L 264.710938 284.296875 L 219.699219 284.296875 Z M 219.699219 257.578125 " clip-rule="nonzero"/></clipPath><clipPath id="08edf21e76"><path d="M 116.214844 258 L 163.328125 258 L 163.328125 284.296875 L 116.214844 284.296875 Z M 116.214844 258 " clip-rule="nonzero"/></clipPath></defs><g clip-path="url(#4524f39889)"><path fill="#e2ded9" d="M 280.570312 235.933594 C 280.570312 272.488281 240.140625 278.539062 200.894531 278.539062 C 161.644531 278.539062 94.757812 272.488281 94.757812 235.933594 C 94.757812 199.375 129.691406 152.566406 189.289062 148.589844 C 225.785156 146.15625 280.570312 181.855469 280.570312 235.933594 " fill-opacity="1" fill-rule="nonzero"/></g><path stroke-linecap="round" transform="matrix(0.0420669, 0, 0, -0.0420104, 94.759606, 284.304649)" fill="none" stroke-linejoin="miter" d="M 3149.700221 797.699269 C 3149.700221 797.699269 3279.794258 871.155751 3467.27453 746.186749 " stroke="#6ea3a5" stroke-width="20" stroke-opacity="1" stroke-miterlimit="10"/><path stroke-linecap="round" transform="matrix(0.0420669, 0, 0, -0.0420104, 94.759606, 284.304649)" fill="none" stroke-linejoin="miter" d="M 3244.786798 875.61893 C 3244.786798 875.61893 3349.530605 982.177319 3564.218267 913.741914 " stroke="#6ea3a5" stroke-width="20" stroke-opacity="1" stroke-miterlimit="10"/><path fill="#1e3b4b" d="M 254.574219 225.820312 C 246.4375 240.023438 227.136719 260.128906 204.144531 259.792969 C 181.152344 259.453125 196.539062 243.636719 211.765625 236.703125 C 226.992188 229.773438 254.574219 225.820312 254.574219 225.820312 " fill-opacity="1" fill-rule="nonzero"/><path stroke-linecap="round" transform="matrix(0.0420669, 0, 0, -0.0420104, 94.759606, 284.304649)" fill="none" stroke-linejoin="miter" d="M 1390.319973 797.699269 C 1390.319973 797.699269 1260.318794 871.155751 1072.838521 746.186749 " stroke="#6ea3a5" stroke-width="20" stroke-opacity="1" stroke-miterlimit="10"/><path stroke-linecap="round" transform="matrix(0.0420669, 0, 0, -0.0420104, 94.759606, 284.304649)" fill="none" stroke-linejoin="miter" d="M 1295.326254 875.61893 C 1295.326254 875.61893 1190.582447 982.177319 975.894785 913.741914 " stroke="#6ea3a5" stroke-width="20" stroke-opacity="1" stroke-miterlimit="10"/><path fill="#1e3b4b" d="M 240.421875 199.550781 L 226.578125 205.089844 C 211.585938 211.085938 197.554688 219.335938 185.097656 229.46875 L 153.484375 258.246094 C 153.238281 259.484375 152.9375 261.964844 154 264.679688 C 156.1875 270.269531 162.160156 271.796875 162.816406 271.953125 C 178.027344 265.699219 193.234375 259.441406 208.445312 253.179688 C 218.515625 249.039062 228.144531 243.847656 237.132812 237.71875 L 254.574219 225.820312 C 261.609375 221.023438 264.34375 212.566406 261.007812 205.917969 C 257.539062 199.015625 248.640625 196.265625 240.421875 199.550781 " fill-opacity="1" fill-rule="nonzero"/><path stroke-linecap="round" transform="matrix(0.0420669, 0, 0, -0.0420104, 94.759606, 284.304649)" fill="none" stroke-linejoin="miter" d="M 3462.631631 2017.448796 L 3133.542931 1885.59906 C 2777.153984 1742.870327 2443.6081 1546.490467 2147.483985 1305.292856 L 1395.98431 620.287919 C 1390.134257 590.812343 1382.984192 531.768209 1408.241564 467.145102 C 1460.242036 334.086589 1602.221895 297.73028 1617.822037 294.010965 C 1979.411032 442.876568 2340.907169 591.835155 2702.496163 740.886725 C 2941.88405 839.448586 3170.778983 963.022844 3384.445208 1108.912996 L 3799.056112 1392.138873 C 3966.293343 1506.32186 4031.293933 1707.629812 3951.993214 1865.886688 C 3869.535323 2030.187451 3658.004832 2095.647405 3462.631631 2017.448796 Z M 3462.631631 2017.448796 " stroke="#e2ded9" stroke-width="20" stroke-opacity="1" stroke-miterlimit="10"/><path fill="#1e3b4b" d="M 124.234375 223.386719 C 132.375 237.585938 153.9375 260.128906 176.929688 259.792969 C 199.921875 259.453125 184.535156 243.636719 169.308594 236.703125 C 154.082031 229.773438 124.234375 223.386719 124.234375 223.386719 " fill-opacity="1" fill-rule="nonzero"/><path fill="#6ea3a5" d="M 222.242188 185.253906 L 226.429688 197.828125 C 227.699219 201.917969 225.972656 206.355469 222.253906 208.507812 L 197.011719 223.136719 L 205.589844 230.632812 L 195.023438 239.328125 C 195.023438 239.328125 163.929688 215.207031 159.957031 211.902344 C 156.523438 209.042969 153.835938 192.113281 153.167969 187.578125 C 153.101562 187.117188 152.539062 186.9375 152.214844 187.269531 L 150.402344 189.105469 C 150.046875 189.460938 149.402344 189.503906 148.554688 189.296875 C 143.902344 188.136719 133.097656 179.351562 130.226562 174.667969 C 129.804688 173.984375 129.550781 173.386719 129.515625 172.914062 C 129.261719 169.59375 136.582031 158.441406 139.910156 153.554688 C 140.371094 152.726562 140.914062 151.949219 141.515625 151.230469 L 141.519531 151.230469 C 144.230469 148.019531 148.289062 145.980469 152.820312 145.980469 C 169.285156 145.800781 171.292969 147.308594 171.292969 147.308594 C 171.292969 147.308594 190.394531 152.761719 200.695312 147.492188 C 207.117188 144.210938 215.921875 144.421875 221.648438 145.050781 C 225.960938 145.523438 230.03125 147.332031 233.160156 150.324219 C 233.554688 150.707031 233.914062 151.078125 234.210938 151.445312 C 237.15625 153.859375 242.59375 169.460938 243 175.492188 C 243.53125 183.429688 229.179688 183.578125 223.589844 183.335938 C 222.574219 183.289062 221.855469 184.3125 222.242188 185.253906 " fill-opacity="1" fill-rule="nonzero"/><path fill="#6ea3a5" d="M 230.515625 210.097656 L 205.589844 230.632812 L 197.011719 223.136719 L 222.253906 208.507812 C 225.972656 206.355469 227.699219 201.917969 226.429688 197.828125 L 230.515625 210.097656 " fill-opacity="1" fill-rule="nonzero"/><path fill="#1e3b4b" d="M 188.769531 227.441406 C 201.597656 237.726562 214.425781 248.011719 227.25 258.292969 C 227.296875 259.847656 227.175781 263.007812 225.464844 266.460938 C 223.65625 270.125 221.019531 272.1875 219.730469 273.070312 L 179.238281 259.304688 C 173.132812 256.84375 167.175781 254 161.414062 250.792969 " fill-opacity="1" fill-rule="nonzero"/><g clip-path="url(#6baa0df33f)"><path stroke-linecap="round" transform="matrix(0.0420669, 0, 0, -0.0420104, 94.759606, 284.304649)" fill="none" stroke-linejoin="miter" d="M 2234.770619 1353.550975 C 2539.71626 1108.72703 2844.661901 863.903086 3149.514684 619.172124 C 3150.62898 582.164935 3147.750383 506.941778 3107.078583 424.744905 C 3064.085333 337.526956 3001.406189 288.431991 2970.763052 267.417859 L 2008.197122 595.089556 C 1863.060082 653.668776 1721.451647 721.360318 1584.486111 797.699269 " stroke="#e2ded9" stroke-width="20" stroke-opacity="1" stroke-miterlimit="10"/></g><path stroke-linecap="round" transform="matrix(0.0420669, 0, 0, -0.0420104, 94.759606, 284.304649)" fill-opacity="1" fill="#1e3b4b" fill-rule="nonzero" stroke-linejoin="miter" d="M 1584.48602 797.699269 C 1387.162801 907.605043 1199.311097 1035.177566 1024.088079 1178.743145 L 749.878448 1403.389803 C 646.248937 1488.190197 590.34843 1607.022328 590.34843 1721.205314 C 590.34843 1786.386319 608.548595 1850.17258 646.527511 1905.125467 C 746.721277 2050.922635 954.537448 2091.184226 1135.239087 1999.782047 L 1583.371724 1773.275731 C 1814.123818 1656.582207 2032.897231 1515.620149 2234.770491 1353.550975 " stroke="#e2ded9" stroke-width="20" stroke-opacity="1" stroke-miterlimit="10"/><path fill="#e8b8ae" d="M 238.066406 215.078125 L 207.050781 231.910156 L 205.589844 230.632812 L 197.011719 223.136719 L 222.253906 208.507812 C 225.972656 206.355469 227.699219 201.917969 226.429688 197.828125 C 226.414062 197.769531 226.394531 197.707031 226.375 197.648438 L 222.242188 185.253906 C 221.855469 184.3125 222.574219 183.289062 223.589844 183.335938 C 229.179688 183.578125 243.53125 183.429688 243 175.492188 L 247.296875 192.683594 C 249.460938 201.359375 245.71875 210.4375 238.066406 215.078125 " fill-opacity="1" fill-rule="nonzero"/><path fill="#e8b8ae" d="M 199.542969 222.371094 C 199.542969 222.371094 195.496094 223.164062 187.933594 227.027344 C 180.367188 230.890625 182.839844 230.238281 188.519531 229.207031 C 194.203125 228.171875 171.476562 243.976562 177.707031 241.242188 C 183.933594 238.507812 187.378906 235.773438 187.378906 235.773438 C 187.378906 235.773438 173.289062 245.035156 178.382812 243.546875 C 183.476562 242.0625 189.550781 236.816406 189.550781 236.816406 C 189.550781 236.816406 177.304688 245.453125 180.730469 244.441406 C 184.148438 243.425781 191.265625 239.085938 191.265625 239.085938 C 191.265625 239.085938 178.445312 247.347656 183.457031 245.835938 C 188.464844 244.320312 207.910156 232.023438 210.207031 229.421875 C 214.074219 225.03125 201.453125 221.605469 199.542969 222.371094 " fill-opacity="1" fill-rule="nonzero"/><path fill="#e8b8ae" d="M 198.582031 157.566406 L 193.777344 162.578125 C 191.070312 165.570312 184.691406 165.449219 181.390625 163.125 L 174.382812 156.632812 C 171.648438 154.707031 171.246094 151.558594 171.246094 148.253906 C 171.246094 147.941406 171.265625 147.625 171.292969 147.304688 C 171.492188 145.203125 171.464844 143.089844 171.222656 140.996094 C 171.171875 140.574219 171.117188 140.15625 171.046875 139.738281 L 170.773438 137.980469 L 170.726562 137.6875 L 170.25 134.660156 L 169.84375 132.097656 L 199.523438 132.097656 L 199.4375 133.761719 L 199.289062 136.621094 L 199.289062 136.628906 C 199.28125 136.792969 199.277344 136.957031 199.273438 137.125 C 199.261719 137.410156 199.253906 137.695312 199.25 137.980469 C 199.246094 138.703125 199.261719 139.425781 199.308594 140.148438 C 199.464844 142.636719 199.933594 145.109375 200.695312 147.492188 L 200.730469 147.605469 C 201.84375 151.070312 201.027344 154.863281 198.582031 157.566406 " fill-opacity="1" fill-rule="nonzero"/><path fill="#ce8a83" d="M 199.308594 140.148438 C 195.332031 143.796875 190.519531 146.980469 185.949219 146.980469 C 181.992188 146.980469 175.511719 144.40625 171.222656 140.996094 C 171.171875 140.574219 171.117188 140.15625 171.046875 139.738281 L 170.773438 137.980469 L 199.25 137.980469 C 199.246094 138.703125 199.261719 139.425781 199.308594 140.148438 " fill-opacity="1" fill-rule="nonzero"/><g clip-path="url(#bf8c0810ec)"><path fill="#e8b8ae" d="M 208.375 117.453125 C 208.375 132.171875 197.953125 144.105469 185.105469 144.105469 C 172.253906 144.105469 161.832031 132.171875 161.832031 117.453125 C 161.832031 116.496094 161.878906 115.550781 161.964844 114.617188 C 162.917969 104.257812 169.058594 95.667969 177.351562 92.316406 C 178.34375 91.914062 179.367188 91.582031 180.421875 91.347656 C 181.933594 90.980469 183.496094 90.796875 185.105469 90.796875 C 197.675781 90.796875 207.921875 102.214844 208.355469 116.496094 C 208.371094 116.8125 208.375 117.128906 208.375 117.453125 " fill-opacity="1" fill-rule="nonzero"/></g><g clip-path="url(#43ef913761)"><path fill="#ce8a83" d="M 208.355469 116.496094 C 190.835938 117.796875 177.351562 92.316406 177.351562 92.316406 C 179.777344 91.332031 182.386719 90.796875 185.105469 90.796875 C 197.675781 90.796875 207.921875 102.214844 208.355469 116.496094 " fill-opacity="1" fill-rule="nonzero"/></g><path fill="#ce8a83" d="M 181.589844 99.011719 C 181.589844 99.011719 171.984375 111.625 161.964844 114.617188 C 162.917969 104.257812 169.058594 95.667969 177.351562 92.316406 C 178.34375 91.914062 179.367188 91.582031 180.421875 91.347656 C 181.746094 93.097656 182.09375 95.632812 181.589844 99.011719 " fill-opacity="1" fill-rule="nonzero"/><path fill="#e8b8ae" d="M 165.339844 122.242188 C 165.339844 124.886719 163.195312 127.035156 160.542969 127.035156 C 157.894531 127.035156 155.746094 124.886719 155.746094 122.242188 C 155.746094 119.597656 157.894531 117.449219 160.542969 117.449219 C 163.195312 117.449219 165.339844 119.597656 165.339844 122.242188 " fill-opacity="1" fill-rule="nonzero"/><path fill="#e8b8ae" d="M 213.15625 122.242188 C 213.15625 124.886719 211.007812 127.035156 208.355469 127.035156 C 205.707031 127.035156 203.558594 124.886719 203.558594 122.242188 C 203.558594 119.597656 205.707031 117.449219 208.355469 117.449219 C 211.007812 117.449219 213.15625 119.597656 213.15625 122.242188 " fill-opacity="1" fill-rule="nonzero"/><path fill="#e8b8ae" d="M 148.554688 189.296875 C 146.679688 192.0625 144.332031 196.617188 140.722656 199.5 C 122.5625 213.984375 120.261719 189.203125 129.640625 175.394531 C 129.828125 175.125 130.019531 174.878906 130.226562 174.667969 C 133.097656 179.351562 143.902344 188.136719 148.554688 189.296875 " fill-opacity="1" fill-rule="nonzero"/><g clip-path="url(#a255ff47a0)"><path fill="#ce8a83" d="M 259.578125 284.300781 L 248.632812 283.898438 C 244.953125 283.757812 241.382812 282.640625 238.285156 280.648438 L 234.9375 278.503906 C 233.21875 277.402344 231.367188 276.550781 229.417969 275.96875 L 219.730469 272.492188 C 221.019531 271.605469 223.160156 269.851562 224.96875 266.191406 C 226.679688 262.734375 226.875 259.507812 226.828125 257.953125 L 230.945312 261.625 C 233.515625 263.941406 236.777344 265.339844 240.230469 265.621094 C 243.988281 265.917969 247.648438 266.828125 251.074219 268.28125 C 254.503906 269.734375 257.691406 271.738281 260.519531 274.234375 L 262.804688 276.257812 C 266.039062 279.125 263.902344 284.460938 259.578125 284.300781 " fill-opacity="1" fill-rule="nonzero"/></g><g clip-path="url(#08edf21e76)"><path fill="#ce8a83" d="M 121.339844 284.300781 L 132.285156 283.898438 C 135.96875 283.757812 139.539062 282.640625 142.636719 280.648438 L 145.984375 278.503906 C 147.699219 277.402344 149.554688 276.550781 151.503906 275.96875 L 163.226562 271.273438 C 161.9375 270.386719 157.722656 270.132812 155.910156 266.46875 C 154.203125 263.015625 154.136719 259.800781 154.183594 258.246094 L 149.976562 261.625 C 147.40625 263.941406 144.144531 265.339844 140.691406 265.621094 C 136.933594 265.917969 133.277344 266.828125 129.847656 268.28125 C 126.417969 269.734375 123.226562 271.738281 120.402344 274.234375 L 118.113281 276.257812 C 114.878906 279.125 117.019531 284.460938 121.339844 284.300781 " fill-opacity="1" fill-rule="nonzero"/></g><path stroke-linecap="round" transform="matrix(0.0420669, 0, 0, -0.0420104, 94.759606, 284.304649)" fill="none" stroke-linejoin="miter" d="M 2071.433295 3921.366412 C 2071.433295 3874.59602 2025.468593 3836.751984 1968.918079 3836.751984 C 1912.274708 3836.751984 1866.402864 3874.59602 1866.402864 3921.366412 " stroke="#1e3b4b" stroke-width="20" stroke-opacity="1" stroke-miterlimit="10"/><path stroke-linecap="round" transform="matrix(0.0420669, 0, 0, -0.0420104, 94.759606, 284.304649)" fill="none" stroke-linejoin="miter" d="M 2469.144046 3921.366412 C 2469.144046 3874.59602 2423.272202 3836.751984 2366.628831 3836.751984 C 2310.078317 3836.751984 2264.113615 3874.59602 2264.113615 3921.366412 " stroke="#1e3b4b" stroke-width="20" stroke-opacity="1" stroke-miterlimit="10"/><path stroke-linecap="round" transform="matrix(0.0420669, 0, 0, -0.0420104, 94.759606, 284.304649)" fill="none" stroke-linejoin="miter" d="M 2340.535737 3704.995232 C 2340.535737 3628.191366 2261.606449 3565.892831 2164.291281 3565.892831 C 2066.883254 3565.892831 1988.046824 3628.191366 1988.046824 3704.995232 " stroke="#1e3b4b" stroke-width="20" stroke-opacity="1" stroke-miterlimit="10"/><path stroke-linecap="round" transform="matrix(0.0420669, 0, 0, -0.0420104, 94.759606, 284.304649)" fill="none" stroke-linejoin="miter" d="M 2164.291281 3863.34509 L 2192.42725 3763.016554 C 2195.398706 3752.602471 2193.912978 3741.444524 2188.341499 3732.146235 L 2172.091351 3704.995232 " stroke="#1e3b4b" stroke-width="20" stroke-opacity="1" stroke-miterlimit="10"/></svg>