<svg xmlns="http://www.w3.org/2000/svg" xmlns:xlink="http://www.w3.org/1999/xlink" width="500" zoomAndPan="magnify" viewBox="0 0 375 374.999991" height="500" preserveAspectRatio="xMidYMid meet" version="1.0"><defs><g/><clipPath id="a1c0e5a8e7"><path d="M 193 265 L 195 265 L 195 284.207031 L 193 284.207031 Z M 193 265 " clip-rule="nonzero"/></clipPath><clipPath id="918df05f5e"><path d="M 186 111.707031 L 202 111.707031 L 202 127 L 186 127 Z M 186 111.707031 " clip-rule="nonzero"/></clipPath></defs><path fill="#49a078" d="M 187.277344 137.726562 C 187.277344 137.726562 179.722656 139.355469 175.328125 122.902344 C 174.3125 119.078125 163.820312 114.167969 159.722656 115.871094 C 130.832031 127.957031 113.648438 132.546875 108.464844 132.300781 C 103.28125 132.054688 115.75 136.617188 121.425781 136.863281 C 127.105469 137.109375 117.722656 138.589844 117.722656 138.589844 C 117.722656 138.589844 120.6875 144.511719 131.304688 143.277344 L 128.09375 144.757812 C 128.09375 144.757812 131.921875 150.0625 139.945312 148.457031 C 143.945312 147.667969 137.96875 150.433594 137.96875 150.433594 C 137.96875 150.433594 143.945312 154.007812 151.054688 151.417969 C 153.769531 150.433594 148.832031 153.886719 148.832031 153.886719 C 148.832031 153.886719 159.945312 153.886719 163.152344 152.652344 C 164.191406 152.257812 156.488281 156.597656 158.214844 156.597656 C 162.660156 156.597656 165.128906 157.117188 169.328125 155.613281 C 172.78125 154.378906 165.871094 159.3125 165.871094 159.3125 C 166.363281 159.804688 174.265625 158.574219 176.238281 156.847656 C 176.980469 156.179688 174.265625 160.546875 174.265625 160.546875 C 174.265625 160.546875 186.238281 159.1875 188.339844 149.445312 C 190.609375 139.132812 187.277344 137.726562 187.277344 137.726562 Z M 187.277344 137.726562 " fill-opacity="1" fill-rule="nonzero"/><path fill="#49a078" d="M 266.605469 136.863281 C 272.285156 136.617188 284.78125 132.054688 279.570312 132.300781 C 274.382812 132.546875 257.199219 127.984375 228.3125 115.894531 C 224.214844 114.195312 213.746094 119.101562 212.707031 122.925781 C 208.3125 139.378906 200.757812 137.753906 200.757812 137.753906 C 200.757812 137.753906 197.425781 139.160156 199.644531 149.46875 C 201.746094 159.214844 213.71875 160.570312 213.71875 160.570312 C 213.71875 160.570312 211.003906 156.203125 211.746094 156.871094 C 213.71875 158.597656 221.621094 159.832031 222.113281 159.335938 C 222.113281 159.335938 215.203125 154.402344 218.65625 155.636719 C 222.855469 157.140625 225.324219 156.625 229.769531 156.625 C 231.496094 156.625 223.792969 152.28125 224.832031 152.675781 C 228.039062 153.910156 239.152344 153.910156 239.152344 153.910156 C 239.152344 153.910156 234.214844 150.457031 236.929688 151.445312 C 244.066406 154.035156 250.015625 150.457031 250.015625 150.457031 C 250.015625 150.457031 244.039062 147.667969 248.039062 148.484375 C 256.0625 150.085938 259.890625 144.78125 259.890625 144.78125 L 256.679688 143.300781 C 267.296875 144.535156 270.261719 138.617188 270.261719 138.617188 C 270.261719 138.617188 260.929688 137.109375 266.605469 136.863281 Z M 266.605469 136.863281 " fill-opacity="1" fill-rule="nonzero"/><path fill="#49a078" d="M 193.472656 276.808594 C 193.5 276.808594 193.472656 276.808594 193.425781 276.785156 C 193.425781 276.808594 193.449219 276.808594 193.472656 276.808594 Z M 193.472656 276.808594 " fill-opacity="1" fill-rule="nonzero"/><path fill="#49a078" d="M 189.449219 272 C 188.882812 269.0625 192.3125 265.3125 192.3125 265.3125 L 189.746094 264.5 C 186.585938 267.164062 186.855469 271.578125 188.015625 273.578125 C 189.546875 276.191406 192.855469 276.6875 193.398438 276.761719 C 192.882812 276.613281 189.96875 274.613281 189.449219 272 Z M 189.449219 272 " fill-opacity="1" fill-rule="nonzero"/><path fill="#49a078" d="M 215.496094 192.640625 C 211.570312 189.335938 206.042969 186.226562 198.90625 185.953125 C 191.746094 185.683594 181.449219 185.140625 180.015625 184.351562 C 178.585938 183.539062 171.722656 181.144531 172.289062 175.273438 C 172.855469 169.402344 175.523438 167.058594 178.164062 167.132812 C 179.769531 167.183594 179.722656 168.21875 183.597656 168.367188 C 187.078125 168.488281 187.425781 167.625 189.03125 166.886719 C 192.484375 165.308594 188.164062 161.605469 186.3125 161.210938 C 182.3125 160.347656 180.882812 159.804688 174.585938 162.199219 C 168.5625 164.492188 164.289062 168.339844 163.722656 172.878906 C 163.328125 176.113281 164.585938 184.105469 167.871094 186.375 C 172.09375 189.285156 176.019531 192.121094 186.191406 193.058594 C 190.609375 193.480469 196.660156 191.75 203.941406 194.390625 C 212.386719 197.476562 215.398438 204.554688 203.375 208.035156 C 203.375 208.035156 210.683594 211.636719 210.953125 212.175781 C 211.25 212.71875 217.25 210.03125 218.386719 204.949219 C 219.496094 199.84375 218.363281 195.03125 215.496094 192.640625 Z M 215.496094 192.640625 " fill-opacity="1" fill-rule="nonzero"/><path fill="#49a078" d="M 224.363281 172.585938 C 223.398438 168.09375 220.164062 164.46875 214.140625 162.148438 C 207.84375 159.730469 206.585938 160.300781 202.585938 161.164062 C 200.734375 161.558594 196.164062 165.355469 199.375 167.578125 C 200.953125 168.660156 200.78125 168.539062 204.261719 168.414062 C 208.117188 168.292969 208.953125 167.132812 210.558594 167.082031 C 213.175781 167.007812 215.84375 169.351562 216.4375 175.222656 C 217.003906 181.09375 212.78125 182.304688 211.351562 183.117188 C 211.351562 183.117188 205.472656 185.117188 204.632812 185.117188 C 203.792969 185.117188 215.496094 189.65625 215.496094 189.65625 C 215.496094 189.65625 215.941406 190.171875 220.363281 186.175781 C 226.878906 180.332031 224.953125 175.25 224.363281 172.585938 Z M 224.363281 172.585938 " fill-opacity="1" fill-rule="nonzero"/><path fill="#49a078" d="M 209.621094 213.609375 C 205.472656 209.734375 198.757812 208.527344 193.03125 208.796875 C 187.300781 209.070312 181.300781 206.378906 181.300781 206.378906 C 172.042969 201.816406 180.4375 196.289062 183.128906 194.761719 C 183.324219 194.636719 184.265625 194.242188 184.042969 194.21875 C 181.375 193.824219 173.597656 191.679688 173.597656 191.679688 C 173.597656 191.679688 170.019531 195.28125 169.746094 201.695312 C 169.449219 208.105469 176.585938 212.546875 181.203125 213.976562 C 186.363281 215.582031 192.929688 215.308594 199.226562 215.582031 C 205.054688 215.828125 206.78125 219.601562 206.953125 222.265625 C 207.25 226.804688 201.375 227.742188 201.375 227.742188 C 201.375 227.742188 207.96875 231.492188 208.535156 231.222656 C 209.101562 230.949219 211.746094 229.691406 212.683594 226.535156 C 214.484375 220.464844 213.695312 217.40625 209.621094 213.609375 Z M 209.621094 213.609375 " fill-opacity="1" fill-rule="nonzero"/><path fill="#49a078" d="M 194.609375 228.1875 C 188.609375 228.1875 182.585938 226.855469 181.449219 223.917969 C 180.3125 220.984375 185.449219 216.445312 185.449219 216.445312 L 178.289062 214.300781 C 178.289062 214.300781 170.5625 222.046875 178.855469 230.605469 C 181.84375 233.6875 187.449219 233.269531 195.746094 234.082031 C 204.042969 234.898438 204.609375 237.289062 204.042969 240.226562 C 203.472656 243.160156 198.042969 246.367188 198.042969 246.367188 L 204.335938 248.515625 C 209.769531 244.492188 210.066406 239.164062 208.066406 235.144531 C 206.066406 231.125 200.609375 228.1875 194.609375 228.1875 Z M 194.609375 228.1875 " fill-opacity="1" fill-rule="nonzero"/><path fill="#49a078" d="M 199.472656 247.675781 C 197.472656 246.863281 191.25 246.664062 186.882812 243.925781 C 181.722656 240.71875 187.175781 234.847656 187.175781 234.847656 L 181.746094 233.515625 C 181.746094 233.515625 179.449219 237.535156 179.449219 239.929688 C 179.449219 241.261719 179.746094 245.28125 184.609375 248.488281 C 189.472656 251.695312 195.472656 250.90625 198.066406 251.425781 C 200.660156 251.945312 201.746094 254.386719 201.5 256.777344 C 201.203125 259.441406 196.339844 261.589844 196.339844 261.589844 L 199.769531 263.191406 C 200.90625 262.648438 203.769531 261.859375 204.929688 256.777344 C 206.066406 251.695312 201.003906 248.292969 199.472656 247.675781 Z M 199.472656 247.675781 " fill-opacity="1" fill-rule="nonzero"/><path fill="#49a078" d="M 192.882812 261.589844 C 189.351562 260.675781 188.929688 259.789062 188.3125 258.652344 C 185.746094 254.113281 189.746094 251.695312 189.746094 251.695312 L 185.449219 250.363281 C 185.152344 250.636719 183.722656 253.570312 183.722656 256.777344 C 183.722656 257.839844 185.152344 262.675781 190.015625 263.734375 C 194.757812 264.746094 197.300781 266.277344 198.609375 267.484375 C 199.472656 268.296875 199.746094 270.691406 199.175781 272.835938 C 198.511719 275.304688 194.609375 276.859375 194.609375 276.859375 C 202.90625 276.042969 201.203125 269.632812 200.609375 267.507812 C 199.84375 264.574219 196.289062 262.476562 192.882812 261.589844 Z M 192.882812 261.589844 " fill-opacity="1" fill-rule="nonzero"/><path fill="#49a078" d="M 193.574219 261.417969 L 195.003906 261.417969 L 195.25 251.945312 L 193.300781 251.945312 Z M 193.574219 261.417969 " fill-opacity="1" fill-rule="nonzero"/><path fill="#49a078" d="M 193.128906 245.972656 L 195.398438 245.972656 L 195.671875 234.578125 L 192.832031 234.578125 Z M 193.128906 245.972656 " fill-opacity="1" fill-rule="nonzero"/><path fill="#49a078" d="M 192.066406 207.835938 L 196.339844 207.835938 L 196.660156 193.996094 L 191.695312 193.996094 Z M 192.066406 207.835938 " fill-opacity="1" fill-rule="nonzero"/><path fill="#49a078" d="M 191.425781 184.621094 L 196.90625 184.621094 L 198.289062 128.820312 L 189.867188 128.820312 Z M 191.425781 184.621094 " fill-opacity="1" fill-rule="nonzero"/><path fill="#49a078" d="M 192.609375 227.375 L 195.84375 227.375 L 196.117188 216.46875 L 192.3125 216.46875 Z M 192.609375 227.375 " fill-opacity="1" fill-rule="nonzero"/><g clip-path="url(#a1c0e5a8e7)"><path fill="#49a078" d="M 194.191406 284.113281 L 194.4375 284.113281 L 194.90625 265.460938 L 193.671875 265.460938 Z M 194.191406 284.113281 " fill-opacity="1" fill-rule="nonzero"/></g><path fill="#49a078" d="M 188.511719 127.34375 L 199.621094 127.34375 L 199.621094 128.082031 L 188.511719 128.082031 Z M 188.511719 127.34375 " fill-opacity="1" fill-rule="nonzero"/><g clip-path="url(#918df05f5e)"><path fill="#49a078" d="M 201.472656 119.203125 C 201.472656 119.6875 201.425781 120.167969 201.332031 120.644531 C 201.234375 121.121094 201.097656 121.585938 200.910156 122.035156 C 200.722656 122.484375 200.496094 122.910156 200.226562 123.3125 C 199.953125 123.71875 199.648438 124.089844 199.304688 124.433594 C 198.960938 124.777344 198.585938 125.085938 198.179688 125.355469 C 197.777344 125.625 197.351562 125.851562 196.902344 126.039062 C 196.453125 126.226562 195.988281 126.363281 195.511719 126.460938 C 195.035156 126.554688 194.550781 126.601562 194.066406 126.601562 C 193.578125 126.601562 193.097656 126.554688 192.621094 126.460938 C 192.144531 126.363281 191.679688 126.226562 191.230469 126.039062 C 190.78125 125.851562 190.355469 125.625 189.949219 125.355469 C 189.546875 125.085938 189.171875 124.777344 188.828125 124.433594 C 188.484375 124.089844 188.179688 123.71875 187.90625 123.3125 C 187.636719 122.910156 187.410156 122.484375 187.222656 122.035156 C 187.035156 121.585938 186.894531 121.121094 186.800781 120.644531 C 186.707031 120.167969 186.660156 119.6875 186.660156 119.203125 C 186.660156 118.714844 186.707031 118.234375 186.800781 117.757812 C 186.894531 117.28125 187.035156 116.816406 187.222656 116.371094 C 187.410156 115.921875 187.636719 115.492188 187.90625 115.089844 C 188.179688 114.6875 188.484375 114.3125 188.828125 113.96875 C 189.171875 113.625 189.546875 113.316406 189.949219 113.046875 C 190.355469 112.777344 190.78125 112.550781 191.230469 112.363281 C 191.679688 112.179688 192.144531 112.039062 192.621094 111.941406 C 193.097656 111.847656 193.578125 111.800781 194.066406 111.800781 C 194.550781 111.800781 195.035156 111.847656 195.511719 111.941406 C 195.988281 112.039062 196.453125 112.179688 196.902344 112.363281 C 197.351562 112.550781 197.777344 112.777344 198.179688 113.046875 C 198.585938 113.316406 198.960938 113.625 199.304688 113.96875 C 199.648438 114.3125 199.953125 114.6875 200.226562 115.089844 C 200.496094 115.492188 200.722656 115.921875 200.910156 116.371094 C 201.097656 116.816406 201.234375 117.28125 201.332031 117.757812 C 201.425781 118.234375 201.472656 118.714844 201.472656 119.203125 Z M 201.472656 119.203125 " fill-opacity="1" fill-rule="nonzero"/></g><g fill="#49a078" fill-opacity="1"><g transform="translate(84.606363, 52.499997)"><g><path d="M 24.8125 -2.015625 C 24.882812 -1.796875 24.921875 -1.597656 24.921875 -1.421875 C 24.921875 -1.242188 24.863281 -1.054688 24.75 -0.859375 C 24.632812 -0.671875 24.5 -0.515625 24.34375 -0.390625 C 24.019531 -0.128906 23.664062 0 23.28125 0 C 22.507812 0 21.992188 -0.320312 21.734375 -0.96875 L 19.390625 -6.921875 L 6.25 -6.921875 L 3.890625 -0.96875 C 3.671875 -0.320312 3.222656 0 2.546875 0 C 1.835938 0 1.34375 -0.285156 1.0625 -0.859375 C 0.957031 -1.054688 0.90625 -1.242188 0.90625 -1.421875 C 0.90625 -1.597656 0.941406 -1.796875 1.015625 -2.015625 L 9.8125 -23.5625 C 10.425781 -25.238281 11.164062 -26.171875 12.03125 -26.359375 C 12.28125 -26.421875 12.566406 -26.453125 12.890625 -26.453125 C 13.566406 -26.453125 14.0625 -26.328125 14.375 -26.078125 C 14.988281 -25.523438 15.503906 -24.6875 15.921875 -23.5625 Z M 7.21875 -9.421875 L 18.46875 -9.421875 L 12.84375 -23.71875 Z M 7.21875 -9.421875 "/></g></g></g><g fill="#49a078" fill-opacity="1"><g transform="translate(110.383296, 52.499997)"><g><path d="M 4.46875 -18.375 C 5.40625 -18.375 5.875 -17.910156 5.875 -16.984375 L 5.875 -15.34375 C 6.675781 -17.65625 8.359375 -18.8125 10.921875 -18.8125 C 11.398438 -18.8125 11.765625 -18.671875 12.015625 -18.390625 C 12.273438 -18.117188 12.40625 -17.820312 12.40625 -17.5 C 12.40625 -17.1875 12.285156 -16.898438 12.046875 -16.640625 C 11.804688 -16.390625 11.347656 -16.265625 10.671875 -16.265625 C 10.003906 -16.265625 9.359375 -16.125 8.734375 -15.84375 C 8.109375 -15.570312 7.585938 -15.195312 7.171875 -14.71875 C 6.304688 -13.65625 5.875 -12.242188 5.875 -10.484375 L 5.875 -1.390625 C 5.875 -0.941406 5.710938 -0.597656 5.390625 -0.359375 C 5.066406 -0.117188 4.757812 0 4.46875 0 C 4.1875 0 3.957031 -0.0195312 3.78125 -0.0625 C 3.601562 -0.113281 3.445312 -0.1875 3.3125 -0.28125 C 3.03125 -0.539062 2.890625 -0.910156 2.890625 -1.390625 L 2.890625 -16.984375 C 2.890625 -17.429688 3.039062 -17.773438 3.34375 -18.015625 C 3.644531 -18.253906 4.019531 -18.375 4.46875 -18.375 Z M 4.46875 -18.375 "/></g></g></g><g fill="#49a078" fill-opacity="1"><g transform="translate(123.512221, 52.499997)"><g><path d="M 6.390625 -24.765625 C 6.390625 -24.316406 6.210938 -23.925781 5.859375 -23.59375 C 5.515625 -23.257812 5.019531 -23.09375 4.375 -23.09375 C 3.738281 -23.09375 3.242188 -23.257812 2.890625 -23.59375 C 2.535156 -23.925781 2.359375 -24.316406 2.359375 -24.765625 C 2.359375 -25.222656 2.535156 -25.625 2.890625 -25.96875 C 3.242188 -26.320312 3.738281 -26.5 4.375 -26.5 C 5.019531 -26.5 5.515625 -26.320312 5.859375 -25.96875 C 6.210938 -25.625 6.390625 -25.222656 6.390625 -24.765625 Z M 2.9375 -16.890625 C 2.9375 -17.367188 3.085938 -17.734375 3.390625 -17.984375 C 3.691406 -18.242188 3.988281 -18.375 4.28125 -18.375 C 4.570312 -18.375 4.796875 -18.34375 4.953125 -18.28125 C 5.109375 -18.21875 5.253906 -18.117188 5.390625 -17.984375 C 5.710938 -17.765625 5.875 -17.398438 5.875 -16.890625 L 5.875 -1.484375 C 5.875 -1.003906 5.710938 -0.632812 5.390625 -0.375 C 5.066406 -0.125 4.71875 0 4.34375 0 C 3.976562 0 3.648438 -0.117188 3.359375 -0.359375 C 3.078125 -0.597656 2.9375 -0.972656 2.9375 -1.484375 Z M 2.9375 -16.890625 "/></g></g></g><g fill="#49a078" fill-opacity="1"><g transform="translate(132.264834, 52.499997)"><g><path d="M 19.34375 -9.765625 C 19.34375 -9.472656 19.242188 -9.222656 19.046875 -9.015625 C 18.859375 -8.804688 18.554688 -8.703125 18.140625 -8.703125 L 4.859375 -8.703125 C 4.921875 -6.328125 5.546875 -4.613281 6.734375 -3.5625 C 7.984375 -2.4375 9.425781 -1.875 11.0625 -1.875 C 12.789062 -1.875 14.632812 -2.515625 16.59375 -3.796875 C 16.851562 -3.992188 17.117188 -4.09375 17.390625 -4.09375 C 17.660156 -4.09375 17.875 -3.992188 18.03125 -3.796875 C 18.195312 -3.609375 18.28125 -3.414062 18.28125 -3.21875 C 18.28125 -2.832031 18.148438 -2.515625 17.890625 -2.265625 C 16.003906 -0.492188 13.648438 0.390625 10.828125 0.390625 C 8.191406 0.390625 6.054688 -0.460938 4.421875 -2.171875 C 2.628906 -3.992188 1.734375 -6.332031 1.734375 -9.1875 C 1.734375 -11.851562 2.488281 -14.082031 4 -15.875 C 5.632812 -17.832031 7.8125 -18.8125 10.53125 -18.8125 C 13.382812 -18.8125 15.582031 -17.941406 17.125 -16.203125 C 18.53125 -14.609375 19.269531 -12.460938 19.34375 -9.765625 Z M 16.40625 -10.625 C 16.269531 -12.425781 15.722656 -13.851562 14.765625 -14.90625 C 13.804688 -15.96875 12.410156 -16.5 10.578125 -16.5 C 8.972656 -16.5 7.660156 -15.921875 6.640625 -14.765625 C 5.640625 -13.640625 5.078125 -12.257812 4.953125 -10.625 Z M 16.40625 -10.625 "/></g></g></g><g fill="#49a078" fill-opacity="1"><g transform="translate(153.23264, 52.499997)"><g><path d="M 2.9375 -24.96875 C 2.9375 -25.445312 3.085938 -25.8125 3.390625 -26.0625 C 3.691406 -26.320312 3.988281 -26.453125 4.28125 -26.453125 C 4.570312 -26.453125 4.796875 -26.421875 4.953125 -26.359375 C 5.109375 -26.296875 5.253906 -26.203125 5.390625 -26.078125 C 5.710938 -25.816406 5.875 -25.445312 5.875 -24.96875 L 5.875 -1.484375 C 5.875 -1.003906 5.710938 -0.632812 5.390625 -0.375 C 5.066406 -0.125 4.71875 0 4.34375 0 C 3.976562 0 3.648438 -0.117188 3.359375 -0.359375 C 3.078125 -0.597656 2.9375 -0.972656 2.9375 -1.484375 Z M 2.9375 -24.96875 "/></g></g></g><g fill="#49a078" fill-opacity="1"><g transform="translate(161.985252, 52.499997)"><g/></g></g><g fill="#49a078" fill-opacity="1"><g transform="translate(172.421062, 52.499997)"><g><path d="M 12.03125 -2.84375 L 12.125 -2.84375 L 20.0625 -25.34375 C 20.3125 -26.082031 20.804688 -26.453125 21.546875 -26.453125 C 22.160156 -26.453125 22.625 -26.164062 22.9375 -25.59375 C 23.039062 -25.425781 23.09375 -25.265625 23.09375 -25.109375 C 23.09375 -24.953125 23.0625 -24.773438 23 -24.578125 L 14.671875 -1.96875 C 14.222656 -0.65625 13.304688 0 11.921875 0 C 11.347656 0 10.835938 -0.132812 10.390625 -0.40625 C 9.941406 -0.675781 9.570312 -1.195312 9.28125 -1.96875 L 0.90625 -24.4375 C 0.84375 -24.5625 0.8125 -24.726562 0.8125 -24.9375 C 0.8125 -25.144531 0.859375 -25.34375 0.953125 -25.53125 C 1.054688 -25.726562 1.1875 -25.910156 1.34375 -26.078125 C 1.632812 -26.328125 1.988281 -26.453125 2.40625 -26.453125 C 3.207031 -26.453125 3.738281 -26.097656 4 -25.390625 Z M 12.03125 -2.84375 "/></g></g></g><g fill="#49a078" fill-opacity="1"><g transform="translate(196.322435, 52.499997)"><g><path d="M 11.59375 -11.203125 L 13.703125 -11.15625 L 13.703125 -12.75 C 13.703125 -15.25 12.289062 -16.5 9.46875 -16.5 C 8.15625 -16.5 7.210938 -16.382812 6.640625 -16.15625 C 5.960938 -15.90625 5.316406 -15.609375 4.703125 -15.265625 C 4.097656 -14.929688 3.660156 -14.765625 3.390625 -14.765625 C 3.117188 -14.765625 2.878906 -14.867188 2.671875 -15.078125 C 2.460938 -15.285156 2.359375 -15.535156 2.359375 -15.828125 C 2.359375 -16.117188 2.484375 -16.375 2.734375 -16.59375 C 4.273438 -18.070312 6.554688 -18.8125 9.578125 -18.8125 C 12.941406 -18.8125 15.101562 -17.65625 16.0625 -15.34375 C 16.414062 -14.539062 16.59375 -13.59375 16.59375 -12.5 L 16.546875 -1.296875 C 16.546875 -0.847656 16.398438 -0.519531 16.109375 -0.3125 C 15.828125 -0.101562 15.5 0 15.125 0 C 14.757812 0 14.429688 -0.101562 14.140625 -0.3125 C 13.847656 -0.519531 13.703125 -0.832031 13.703125 -1.25 L 13.703125 -2.984375 C 12.929688 -1.347656 11.539062 -0.289062 9.53125 0.1875 C 8.882812 0.320312 8.179688 0.390625 7.421875 0.390625 C 6.671875 0.390625 5.910156 0.265625 5.140625 0.015625 C 4.378906 -0.222656 3.707031 -0.582031 3.125 -1.0625 C 1.90625 -2.019531 1.296875 -3.363281 1.296875 -5.09375 C 1.296875 -9.164062 4.726562 -11.203125 11.59375 -11.203125 Z M 13.703125 -9 C 13.160156 -8.96875 12.546875 -8.953125 11.859375 -8.953125 C 11.171875 -8.953125 10.476562 -8.929688 9.78125 -8.890625 C 9.09375 -8.859375 8.421875 -8.78125 7.765625 -8.65625 C 7.109375 -8.53125 6.523438 -8.335938 6.015625 -8.078125 C 4.859375 -7.441406 4.28125 -6.476562 4.28125 -5.1875 C 4.28125 -4.164062 4.679688 -3.332031 5.484375 -2.6875 C 6.128906 -2.207031 7.054688 -1.9375 8.265625 -1.875 C 9.742188 -1.875 11 -2.335938 12.03125 -3.265625 C 13.082031 -4.203125 13.640625 -5.566406 13.703125 -7.359375 Z M 13.703125 -9 "/></g></g></g><g fill="#49a078" fill-opacity="1"><g transform="translate(215.655133, 52.499997)"><g><path d="M 2.9375 -24.96875 C 2.9375 -25.445312 3.085938 -25.8125 3.390625 -26.0625 C 3.691406 -26.320312 3.988281 -26.453125 4.28125 -26.453125 C 4.570312 -26.453125 4.796875 -26.421875 4.953125 -26.359375 C 5.109375 -26.296875 5.253906 -26.203125 5.390625 -26.078125 C 5.710938 -25.816406 5.875 -25.445312 5.875 -24.96875 L 5.875 -1.484375 C 5.875 -1.003906 5.710938 -0.632812 5.390625 -0.375 C 5.066406 -0.125 4.71875 0 4.34375 0 C 3.976562 0 3.648438 -0.117188 3.359375 -0.359375 C 3.078125 -0.597656 2.9375 -0.972656 2.9375 -1.484375 Z M 2.9375 -24.96875 "/></g></g></g><g fill="#49a078" fill-opacity="1"><g transform="translate(224.407746, 52.499997)"><g><path d="M 2.9375 -24.96875 C 2.9375 -25.445312 3.085938 -25.8125 3.390625 -26.0625 C 3.691406 -26.320312 3.988281 -26.453125 4.28125 -26.453125 C 4.570312 -26.453125 4.796875 -26.421875 4.953125 -26.359375 C 5.109375 -26.296875 5.253906 -26.203125 5.390625 -26.078125 C 5.710938 -25.816406 5.875 -25.445312 5.875 -24.96875 L 5.875 -1.484375 C 5.875 -1.003906 5.710938 -0.632812 5.390625 -0.375 C 5.066406 -0.125 4.71875 0 4.34375 0 C 3.976562 0 3.648438 -0.117188 3.359375 -0.359375 C 3.078125 -0.597656 2.9375 -0.972656 2.9375 -1.484375 Z M 2.9375 -24.96875 "/></g></g></g><g fill="#49a078" fill-opacity="1"><g transform="translate(233.160358, 52.499997)"><g><path d="M 19.34375 -9.765625 C 19.34375 -9.472656 19.242188 -9.222656 19.046875 -9.015625 C 18.859375 -8.804688 18.554688 -8.703125 18.140625 -8.703125 L 4.859375 -8.703125 C 4.921875 -6.328125 5.546875 -4.613281 6.734375 -3.5625 C 7.984375 -2.4375 9.425781 -1.875 11.0625 -1.875 C 12.789062 -1.875 14.632812 -2.515625 16.59375 -3.796875 C 16.851562 -3.992188 17.117188 -4.09375 17.390625 -4.09375 C 17.660156 -4.09375 17.875 -3.992188 18.03125 -3.796875 C 18.195312 -3.609375 18.28125 -3.414062 18.28125 -3.21875 C 18.28125 -2.832031 18.148438 -2.515625 17.890625 -2.265625 C 16.003906 -0.492188 13.648438 0.390625 10.828125 0.390625 C 8.191406 0.390625 6.054688 -0.460938 4.421875 -2.171875 C 2.628906 -3.992188 1.734375 -6.332031 1.734375 -9.1875 C 1.734375 -11.851562 2.488281 -14.082031 4 -15.875 C 5.632812 -17.832031 7.8125 -18.8125 10.53125 -18.8125 C 13.382812 -18.8125 15.582031 -17.941406 17.125 -16.203125 C 18.53125 -14.609375 19.269531 -12.460938 19.34375 -9.765625 Z M 16.40625 -10.625 C 16.269531 -12.425781 15.722656 -13.851562 14.765625 -14.90625 C 13.804688 -15.96875 12.410156 -16.5 10.578125 -16.5 C 8.972656 -16.5 7.660156 -15.921875 6.640625 -14.765625 C 5.640625 -13.640625 5.078125 -12.257812 4.953125 -10.625 Z M 16.40625 -10.625 "/></g></g></g><g fill="#49a078" fill-opacity="1"><g transform="translate(254.128164, 52.499997)"><g><path d="M -0.09375 6.640625 C -0.601562 6.578125 -0.859375 6.253906 -0.859375 5.671875 C -0.859375 5.421875 -0.78125 5.191406 -0.625 4.984375 C -0.46875 4.773438 -0.140625 4.671875 0.359375 4.671875 C 0.859375 4.671875 1.289062 4.632812 1.65625 4.5625 C 2.03125 4.5 2.3125 4.359375 2.5 4.140625 C 2.789062 3.816406 2.9375 2.882812 2.9375 1.34375 L 2.9375 -16.890625 C 2.9375 -17.367188 3.09375 -17.734375 3.40625 -17.984375 C 3.726562 -18.242188 4.035156 -18.375 4.328125 -18.375 C 4.617188 -18.375 4.851562 -18.34375 5.03125 -18.28125 C 5.207031 -18.21875 5.359375 -18.117188 5.484375 -17.984375 C 5.773438 -17.765625 5.921875 -17.398438 5.921875 -16.890625 L 5.921875 0.625 C 5.921875 1.78125 5.878906 2.757812 5.796875 3.5625 C 5.710938 4.363281 5.507812 5.003906 5.1875 5.484375 C 4.550781 6.441406 3.144531 6.921875 0.96875 6.921875 C 0.644531 6.921875 0.382812 6.878906 0.1875 6.796875 C 0 6.722656 -0.09375 6.671875 -0.09375 6.640625 Z M 6.453125 -24.765625 C 6.453125 -24.316406 6.273438 -23.925781 5.921875 -23.59375 C 5.566406 -23.257812 5.066406 -23.09375 4.421875 -23.09375 C 3.785156 -23.09375 3.296875 -23.257812 2.953125 -23.59375 C 2.617188 -23.925781 2.453125 -24.316406 2.453125 -24.765625 C 2.453125 -25.222656 2.628906 -25.625 2.984375 -25.96875 C 3.335938 -26.320312 3.828125 -26.5 4.453125 -26.5 C 5.078125 -26.5 5.566406 -26.320312 5.921875 -25.96875 C 6.273438 -25.625 6.453125 -25.222656 6.453125 -24.765625 Z M 6.453125 -24.765625 "/></g></g></g><g fill="#49a078" fill-opacity="1"><g transform="translate(262.928865, 52.499997)"><g><path d="M 1.59375 -9.140625 C 1.59375 -10.296875 1.773438 -11.46875 2.140625 -12.65625 C 2.503906 -13.84375 3.070312 -14.882812 3.84375 -15.78125 C 5.507812 -17.800781 7.820312 -18.8125 10.78125 -18.8125 C 13.664062 -18.8125 15.972656 -17.800781 17.703125 -15.78125 C 19.210938 -14.007812 19.96875 -11.8125 19.96875 -9.1875 C 19.96875 -6.59375 19.210938 -4.394531 17.703125 -2.59375 C 16.003906 -0.601562 13.695312 0.390625 10.78125 0.390625 C 7.789062 0.390625 5.476562 -0.601562 3.84375 -2.59375 C 2.34375 -4.425781 1.59375 -6.609375 1.59375 -9.140625 Z M 4.765625 -9.140625 C 4.765625 -8.367188 4.875 -7.550781 5.09375 -6.6875 C 5.320312 -5.820312 5.675781 -5.035156 6.15625 -4.328125 C 7.28125 -2.691406 8.820312 -1.875 10.78125 -1.875 C 12.757812 -1.875 14.296875 -2.691406 15.390625 -4.328125 C 16.285156 -5.703125 16.734375 -7.320312 16.734375 -9.1875 C 16.734375 -11.007812 16.285156 -12.628906 15.390625 -14.046875 C 14.335938 -15.679688 12.800781 -16.5 10.78125 -16.5 C 8.789062 -16.5 7.25 -15.679688 6.15625 -14.046875 C 5.226562 -12.671875 4.765625 -11.035156 4.765625 -9.140625 Z M 4.765625 -9.140625 "/></g></g></g><g fill="#49a078" fill-opacity="1"><g transform="translate(284.473751, 52.499997)"><g><path d="M 9.46875 -16.5 C 6.6875 -16.5 5.296875 -15.617188 5.296875 -13.859375 C 5.296875 -13.085938 5.679688 -12.476562 6.453125 -12.03125 C 7.023438 -11.738281 8.207031 -11.375 10 -10.9375 C 11.800781 -10.507812 13.164062 -10.148438 14.09375 -9.859375 C 15.019531 -9.566406 15.785156 -9.035156 16.390625 -8.265625 C 17.003906 -7.503906 17.3125 -6.601562 17.3125 -5.5625 C 17.3125 -4.519531 17.085938 -3.617188 16.640625 -2.859375 C 16.191406 -2.109375 15.582031 -1.492188 14.8125 -1.015625 C 13.375 -0.078125 11.5 0.390625 9.1875 0.390625 C 7.425781 0.390625 5.804688 0.0976562 4.328125 -0.484375 C 3.648438 -0.765625 3.101562 -1.082031 2.6875 -1.4375 C 2.269531 -1.789062 2.0625 -2.117188 2.0625 -2.421875 C 2.0625 -2.734375 2.171875 -2.992188 2.390625 -3.203125 C 2.617188 -3.410156 2.878906 -3.515625 3.171875 -3.515625 C 3.460938 -3.515625 3.800781 -3.425781 4.1875 -3.25 C 4.570312 -3.070312 5.035156 -2.882812 5.578125 -2.6875 C 7.054688 -2.144531 8.257812 -1.875 9.1875 -1.875 C 10.113281 -1.875 10.847656 -1.9375 11.390625 -2.0625 C 11.941406 -2.195312 12.441406 -2.40625 12.890625 -2.6875 C 13.847656 -3.300781 14.328125 -4.132812 14.328125 -5.1875 C 14.328125 -6.40625 13.476562 -7.304688 11.78125 -7.890625 C 11.144531 -8.109375 10.457031 -8.289062 9.71875 -8.4375 C 8.976562 -8.582031 8.253906 -8.734375 7.546875 -8.890625 C 6.847656 -9.054688 6.1875 -9.25 5.5625 -9.46875 C 4.9375 -9.695312 4.363281 -10.003906 3.84375 -10.390625 C 2.789062 -11.160156 2.265625 -12.265625 2.265625 -13.703125 C 2.265625 -15.472656 3.015625 -16.804688 4.515625 -17.703125 C 5.765625 -18.441406 7.453125 -18.8125 9.578125 -18.8125 C 11.628906 -18.8125 13.296875 -18.472656 14.578125 -17.796875 C 15.628906 -17.253906 16.15625 -16.675781 16.15625 -16.0625 C 16.15625 -15.8125 16.039062 -15.585938 15.8125 -15.390625 C 15.59375 -15.203125 15.375 -15.109375 15.15625 -15.109375 C 14.738281 -15.109375 14.390625 -15.195312 14.109375 -15.375 C 13.835938 -15.550781 13.550781 -15.707031 13.25 -15.84375 C 12.945312 -15.988281 12.601562 -16.109375 12.21875 -16.203125 C 11.476562 -16.398438 10.5625 -16.5 9.46875 -16.5 Z M 9.46875 -16.5 "/></g></g></g><g fill="#49a078" fill-opacity="1"><g transform="translate(87.593745, 313.405935)"><g><path d="M 7 0 L 5.171875 0 L 5.171875 -14.078125 L 0.1875 -14.078125 L 0.1875 -15.703125 L 11.96875 -15.703125 L 11.96875 -14.078125 L 7 -14.078125 Z M 7 0 "/></g></g></g><g fill="#49a078" fill-opacity="1"><g transform="translate(99.762487, 313.405935)"><g><path d="M 6.859375 0.21875 C 5.117188 0.21875 3.742188 -0.3125 2.734375 -1.375 C 1.734375 -2.4375 1.234375 -3.910156 1.234375 -5.796875 C 1.234375 -7.691406 1.703125 -9.195312 2.640625 -10.3125 C 3.578125 -11.425781 4.832031 -11.984375 6.40625 -11.984375 C 7.875 -11.984375 9.035156 -11.5 9.890625 -10.53125 C 10.753906 -9.5625 11.1875 -8.28125 11.1875 -6.6875 L 11.1875 -5.5625 L 3.078125 -5.5625 C 3.117188 -4.175781 3.46875 -3.125 4.125 -2.40625 C 4.789062 -1.695312 5.722656 -1.34375 6.921875 -1.34375 C 8.191406 -1.34375 9.445312 -1.609375 10.6875 -2.140625 L 10.6875 -0.546875 C 10.0625 -0.273438 9.46875 -0.0820312 8.90625 0.03125 C 8.34375 0.15625 7.660156 0.21875 6.859375 0.21875 Z M 6.375 -10.5 C 5.4375 -10.5 4.6875 -10.1875 4.125 -9.5625 C 3.5625 -8.945312 3.226562 -8.097656 3.125 -7.015625 L 9.28125 -7.015625 C 9.28125 -8.140625 9.03125 -9 8.53125 -9.59375 C 8.03125 -10.195312 7.3125 -10.5 6.375 -10.5 Z M 6.375 -10.5 "/></g></g></g><g fill="#49a078" fill-opacity="1"><g transform="translate(112.103074, 313.405935)"><g><path d="M 7.265625 -11.984375 C 7.785156 -11.984375 8.253906 -11.941406 8.671875 -11.859375 L 8.421875 -10.203125 C 7.929688 -10.304688 7.503906 -10.359375 7.140625 -10.359375 C 6.179688 -10.359375 5.363281 -9.972656 4.6875 -9.203125 C 4.007812 -8.429688 3.671875 -7.46875 3.671875 -6.3125 L 3.671875 0 L 1.890625 0 L 1.890625 -11.78125 L 3.359375 -11.78125 L 3.5625 -9.59375 L 3.65625 -9.59375 C 4.09375 -10.363281 4.617188 -10.953125 5.234375 -11.359375 C 5.847656 -11.773438 6.523438 -11.984375 7.265625 -11.984375 Z M 7.265625 -11.984375 "/></g></g></g><g fill="#49a078" fill-opacity="1"><g transform="translate(121.081948, 313.405935)"><g><path d="M 9.125 0 L 8.78125 -1.671875 L 8.6875 -1.671875 C 8.101562 -0.929688 7.519531 -0.429688 6.9375 -0.171875 C 6.351562 0.0859375 5.625 0.21875 4.75 0.21875 C 3.582031 0.21875 2.664062 -0.0820312 2 -0.6875 C 1.34375 -1.289062 1.015625 -2.144531 1.015625 -3.25 C 1.015625 -5.632812 2.914062 -6.882812 6.71875 -7 L 8.71875 -7.0625 L 8.71875 -7.78125 C 8.71875 -8.707031 8.515625 -9.390625 8.109375 -9.828125 C 7.710938 -10.273438 7.078125 -10.5 6.203125 -10.5 C 5.222656 -10.5 4.113281 -10.195312 2.875 -9.59375 L 2.328125 -10.953125 C 2.910156 -11.273438 3.546875 -11.523438 4.234375 -11.703125 C 4.929688 -11.878906 5.625 -11.96875 6.3125 -11.96875 C 7.71875 -11.96875 8.757812 -11.65625 9.4375 -11.03125 C 10.113281 -10.40625 10.453125 -9.40625 10.453125 -8.03125 L 10.453125 0 Z M 5.109375 -1.25 C 6.210938 -1.25 7.082031 -1.550781 7.71875 -2.15625 C 8.351562 -2.769531 8.671875 -3.628906 8.671875 -4.734375 L 8.671875 -5.796875 L 6.890625 -5.71875 C 5.472656 -5.664062 4.445312 -5.441406 3.8125 -5.046875 C 3.1875 -4.660156 2.875 -4.054688 2.875 -3.234375 C 2.875 -2.585938 3.066406 -2.09375 3.453125 -1.75 C 3.847656 -1.414062 4.398438 -1.25 5.109375 -1.25 Z M 5.109375 -1.25 "/></g></g></g><g fill="#49a078" fill-opacity="1"><g transform="translate(133.315132, 313.405935)"><g><path d="M 7.375 0.21875 C 6.601562 0.21875 5.898438 0.078125 5.265625 -0.203125 C 4.628906 -0.492188 4.097656 -0.929688 3.671875 -1.515625 L 3.546875 -1.515625 C 3.628906 -0.828125 3.671875 -0.175781 3.671875 0.4375 L 3.671875 5.28125 L 1.890625 5.28125 L 1.890625 -11.78125 L 3.34375 -11.78125 L 3.59375 -10.15625 L 3.671875 -10.15625 C 4.128906 -10.800781 4.660156 -11.265625 5.265625 -11.546875 C 5.878906 -11.835938 6.582031 -11.984375 7.375 -11.984375 C 8.9375 -11.984375 10.140625 -11.445312 10.984375 -10.375 C 11.828125 -9.3125 12.25 -7.816406 12.25 -5.890625 C 12.25 -3.960938 11.816406 -2.460938 10.953125 -1.390625 C 10.097656 -0.316406 8.90625 0.21875 7.375 0.21875 Z M 7.109375 -10.46875 C 5.910156 -10.46875 5.039062 -10.132812 4.5 -9.46875 C 3.96875 -8.800781 3.691406 -7.742188 3.671875 -6.296875 L 3.671875 -5.890625 C 3.671875 -4.242188 3.945312 -3.0625 4.5 -2.34375 C 5.050781 -1.632812 5.9375 -1.28125 7.15625 -1.28125 C 8.175781 -1.28125 8.972656 -1.691406 9.546875 -2.515625 C 10.117188 -3.335938 10.40625 -4.472656 10.40625 -5.921875 C 10.40625 -7.390625 10.117188 -8.515625 9.546875 -9.296875 C 8.972656 -10.078125 8.160156 -10.46875 7.109375 -10.46875 Z M 7.109375 -10.46875 "/></g></g></g><g fill="#49a078" fill-opacity="1"><g transform="translate(146.794188, 313.405935)"><g><path d="M 3.671875 0 L 1.890625 0 L 1.890625 -11.78125 L 3.671875 -11.78125 Z M 1.734375 -14.96875 C 1.734375 -15.375 1.832031 -15.671875 2.03125 -15.859375 C 2.238281 -16.046875 2.492188 -16.140625 2.796875 -16.140625 C 3.078125 -16.140625 3.320312 -16.039062 3.53125 -15.84375 C 3.738281 -15.65625 3.84375 -15.363281 3.84375 -14.96875 C 3.84375 -14.5625 3.738281 -14.257812 3.53125 -14.0625 C 3.320312 -13.863281 3.078125 -13.765625 2.796875 -13.765625 C 2.492188 -13.765625 2.238281 -13.863281 2.03125 -14.0625 C 1.832031 -14.257812 1.734375 -14.5625 1.734375 -14.96875 Z M 1.734375 -14.96875 "/></g></g></g><g fill="#49a078" fill-opacity="1"><g transform="translate(152.357652, 313.405935)"><g><path d="M 9.125 0 L 8.78125 -1.671875 L 8.6875 -1.671875 C 8.101562 -0.929688 7.519531 -0.429688 6.9375 -0.171875 C 6.351562 0.0859375 5.625 0.21875 4.75 0.21875 C 3.582031 0.21875 2.664062 -0.0820312 2 -0.6875 C 1.34375 -1.289062 1.015625 -2.144531 1.015625 -3.25 C 1.015625 -5.632812 2.914062 -6.882812 6.71875 -7 L 8.71875 -7.0625 L 8.71875 -7.78125 C 8.71875 -8.707031 8.515625 -9.390625 8.109375 -9.828125 C 7.710938 -10.273438 7.078125 -10.5 6.203125 -10.5 C 5.222656 -10.5 4.113281 -10.195312 2.875 -9.59375 L 2.328125 -10.953125 C 2.910156 -11.273438 3.546875 -11.523438 4.234375 -11.703125 C 4.929688 -11.878906 5.625 -11.96875 6.3125 -11.96875 C 7.71875 -11.96875 8.757812 -11.65625 9.4375 -11.03125 C 10.113281 -10.40625 10.453125 -9.40625 10.453125 -8.03125 L 10.453125 0 Z M 5.109375 -1.25 C 6.210938 -1.25 7.082031 -1.550781 7.71875 -2.15625 C 8.351562 -2.769531 8.671875 -3.628906 8.671875 -4.734375 L 8.671875 -5.796875 L 6.890625 -5.71875 C 5.472656 -5.664062 4.445312 -5.441406 3.8125 -5.046875 C 3.1875 -4.660156 2.875 -4.054688 2.875 -3.234375 C 2.875 -2.585938 3.066406 -2.09375 3.453125 -1.75 C 3.847656 -1.414062 4.398438 -1.25 5.109375 -1.25 Z M 5.109375 -1.25 "/></g></g></g><g fill="#49a078" fill-opacity="1"><g transform="translate(164.590836, 313.405935)"><g><path d="M 9.484375 -3.21875 C 9.484375 -2.113281 9.070312 -1.265625 8.25 -0.671875 C 7.4375 -0.078125 6.296875 0.21875 4.828125 0.21875 C 3.265625 0.21875 2.046875 -0.03125 1.171875 -0.53125 L 1.171875 -2.1875 C 1.734375 -1.894531 2.335938 -1.664062 2.984375 -1.5 C 3.640625 -1.332031 4.265625 -1.25 4.859375 -1.25 C 5.796875 -1.25 6.515625 -1.398438 7.015625 -1.703125 C 7.515625 -2.003906 7.765625 -2.457031 7.765625 -3.0625 C 7.765625 -3.519531 7.566406 -3.910156 7.171875 -4.234375 C 6.773438 -4.566406 6 -4.953125 4.84375 -5.390625 C 3.75 -5.796875 2.96875 -6.148438 2.5 -6.453125 C 2.039062 -6.765625 1.695312 -7.113281 1.46875 -7.5 C 1.25 -7.882812 1.140625 -8.347656 1.140625 -8.890625 C 1.140625 -9.847656 1.53125 -10.601562 2.3125 -11.15625 C 3.09375 -11.707031 4.160156 -11.984375 5.515625 -11.984375 C 6.785156 -11.984375 8.023438 -11.726562 9.234375 -11.21875 L 8.609375 -9.765625 C 7.421875 -10.253906 6.347656 -10.5 5.390625 -10.5 C 4.546875 -10.5 3.910156 -10.363281 3.484375 -10.09375 C 3.054688 -9.832031 2.84375 -9.46875 2.84375 -9 C 2.84375 -8.6875 2.921875 -8.414062 3.078125 -8.1875 C 3.234375 -7.96875 3.488281 -7.757812 3.84375 -7.5625 C 4.207031 -7.363281 4.898438 -7.070312 5.921875 -6.6875 C 7.316406 -6.1875 8.257812 -5.675781 8.75 -5.15625 C 9.238281 -4.644531 9.484375 -4 9.484375 -3.21875 Z M 9.484375 -3.21875 "/></g></g></g><g fill="#49a078" fill-opacity="1"><g transform="translate(175.084095, 313.405935)"><g/></g></g><g fill="#49a078" fill-opacity="1"><g transform="translate(180.797924, 313.405935)"><g><path d="M 9.125 0 L 8.78125 -1.671875 L 8.6875 -1.671875 C 8.101562 -0.929688 7.519531 -0.429688 6.9375 -0.171875 C 6.351562 0.0859375 5.625 0.21875 4.75 0.21875 C 3.582031 0.21875 2.664062 -0.0820312 2 -0.6875 C 1.34375 -1.289062 1.015625 -2.144531 1.015625 -3.25 C 1.015625 -5.632812 2.914062 -6.882812 6.71875 -7 L 8.71875 -7.0625 L 8.71875 -7.78125 C 8.71875 -8.707031 8.515625 -9.390625 8.109375 -9.828125 C 7.710938 -10.273438 7.078125 -10.5 6.203125 -10.5 C 5.222656 -10.5 4.113281 -10.195312 2.875 -9.59375 L 2.328125 -10.953125 C 2.910156 -11.273438 3.546875 -11.523438 4.234375 -11.703125 C 4.929688 -11.878906 5.625 -11.96875 6.3125 -11.96875 C 7.71875 -11.96875 8.757812 -11.65625 9.4375 -11.03125 C 10.113281 -10.40625 10.453125 -9.40625 10.453125 -8.03125 L 10.453125 0 Z M 5.109375 -1.25 C 6.210938 -1.25 7.082031 -1.550781 7.71875 -2.15625 C 8.351562 -2.769531 8.671875 -3.628906 8.671875 -4.734375 L 8.671875 -5.796875 L 6.890625 -5.71875 C 5.472656 -5.664062 4.445312 -5.441406 3.8125 -5.046875 C 3.1875 -4.660156 2.875 -4.054688 2.875 -3.234375 C 2.875 -2.585938 3.066406 -2.09375 3.453125 -1.75 C 3.847656 -1.414062 4.398438 -1.25 5.109375 -1.25 Z M 5.109375 -1.25 "/></g></g></g><g fill="#49a078" fill-opacity="1"><g transform="translate(193.031108, 313.405935)"><g><path d="M 3.671875 0 L 1.890625 0 L 1.890625 -16.71875 L 3.671875 -16.71875 Z M 3.671875 0 "/></g></g></g><g fill="#49a078" fill-opacity="1"><g transform="translate(198.594573, 313.405935)"><g><path d="M 5.6875 -1.25 C 6.007812 -1.25 6.316406 -1.269531 6.609375 -1.3125 C 6.898438 -1.363281 7.132812 -1.414062 7.3125 -1.46875 L 7.3125 -0.109375 C 7.113281 -0.015625 6.828125 0.0625 6.453125 0.125 C 6.078125 0.1875 5.738281 0.21875 5.4375 0.21875 C 3.15625 0.21875 2.015625 -0.984375 2.015625 -3.390625 L 2.015625 -10.390625 L 0.328125 -10.390625 L 0.328125 -11.25 L 2.015625 -11.984375 L 2.765625 -14.5 L 3.796875 -14.5 L 3.796875 -11.78125 L 7.21875 -11.78125 L 7.21875 -10.390625 L 3.796875 -10.390625 L 3.796875 -3.453125 C 3.796875 -2.742188 3.960938 -2.195312 4.296875 -1.8125 C 4.640625 -1.4375 5.101562 -1.25 5.6875 -1.25 Z M 5.6875 -1.25 "/></g></g></g><g fill="#49a078" fill-opacity="1"><g transform="translate(206.3598, 313.405935)"><g><path d="M 6.859375 0.21875 C 5.117188 0.21875 3.742188 -0.3125 2.734375 -1.375 C 1.734375 -2.4375 1.234375 -3.910156 1.234375 -5.796875 C 1.234375 -7.691406 1.703125 -9.195312 2.640625 -10.3125 C 3.578125 -11.425781 4.832031 -11.984375 6.40625 -11.984375 C 7.875 -11.984375 9.035156 -11.5 9.890625 -10.53125 C 10.753906 -9.5625 11.1875 -8.28125 11.1875 -6.6875 L 11.1875 -5.5625 L 3.078125 -5.5625 C 3.117188 -4.175781 3.46875 -3.125 4.125 -2.40625 C 4.789062 -1.695312 5.722656 -1.34375 6.921875 -1.34375 C 8.191406 -1.34375 9.445312 -1.609375 10.6875 -2.140625 L 10.6875 -0.546875 C 10.0625 -0.273438 9.46875 -0.0820312 8.90625 0.03125 C 8.34375 0.15625 7.660156 0.21875 6.859375 0.21875 Z M 6.375 -10.5 C 5.4375 -10.5 4.6875 -10.1875 4.125 -9.5625 C 3.5625 -8.945312 3.226562 -8.097656 3.125 -7.015625 L 9.28125 -7.015625 C 9.28125 -8.140625 9.03125 -9 8.53125 -9.59375 C 8.03125 -10.195312 7.3125 -10.5 6.375 -10.5 Z M 6.375 -10.5 "/></g></g></g><g fill="#49a078" fill-opacity="1"><g transform="translate(218.700387, 313.405935)"><g><path d="M 7.265625 -11.984375 C 7.785156 -11.984375 8.253906 -11.941406 8.671875 -11.859375 L 8.421875 -10.203125 C 7.929688 -10.304688 7.503906 -10.359375 7.140625 -10.359375 C 6.179688 -10.359375 5.363281 -9.972656 4.6875 -9.203125 C 4.007812 -8.429688 3.671875 -7.46875 3.671875 -6.3125 L 3.671875 0 L 1.890625 0 L 1.890625 -11.78125 L 3.359375 -11.78125 L 3.5625 -9.59375 L 3.65625 -9.59375 C 4.09375 -10.363281 4.617188 -10.953125 5.234375 -11.359375 C 5.847656 -11.773438 6.523438 -11.984375 7.265625 -11.984375 Z M 7.265625 -11.984375 "/></g></g></g><g fill="#49a078" fill-opacity="1"><g transform="translate(227.679261, 313.405935)"><g><path d="M 9.953125 0 L 9.953125 -7.609375 C 9.953125 -8.578125 9.734375 -9.296875 9.296875 -9.765625 C 8.859375 -10.234375 8.171875 -10.46875 7.234375 -10.46875 C 6.003906 -10.46875 5.101562 -10.132812 4.53125 -9.46875 C 3.957031 -8.800781 3.671875 -7.703125 3.671875 -6.171875 L 3.671875 0 L 1.890625 0 L 1.890625 -11.78125 L 3.34375 -11.78125 L 3.625 -10.15625 L 3.71875 -10.15625 C 4.082031 -10.738281 4.59375 -11.1875 5.25 -11.5 C 5.90625 -11.820312 6.640625 -11.984375 7.453125 -11.984375 C 8.867188 -11.984375 9.9375 -11.640625 10.65625 -10.953125 C 11.375 -10.273438 11.734375 -9.1875 11.734375 -7.6875 L 11.734375 0 Z M 9.953125 0 "/></g></g></g><g fill="#49a078" fill-opacity="1"><g transform="translate(241.179798, 313.405935)"><g><path d="M 9.125 0 L 8.78125 -1.671875 L 8.6875 -1.671875 C 8.101562 -0.929688 7.519531 -0.429688 6.9375 -0.171875 C 6.351562 0.0859375 5.625 0.21875 4.75 0.21875 C 3.582031 0.21875 2.664062 -0.0820312 2 -0.6875 C 1.34375 -1.289062 1.015625 -2.144531 1.015625 -3.25 C 1.015625 -5.632812 2.914062 -6.882812 6.71875 -7 L 8.71875 -7.0625 L 8.71875 -7.78125 C 8.71875 -8.707031 8.515625 -9.390625 8.109375 -9.828125 C 7.710938 -10.273438 7.078125 -10.5 6.203125 -10.5 C 5.222656 -10.5 4.113281 -10.195312 2.875 -9.59375 L 2.328125 -10.953125 C 2.910156 -11.273438 3.546875 -11.523438 4.234375 -11.703125 C 4.929688 -11.878906 5.625 -11.96875 6.3125 -11.96875 C 7.71875 -11.96875 8.757812 -11.65625 9.4375 -11.03125 C 10.113281 -10.40625 10.453125 -9.40625 10.453125 -8.03125 L 10.453125 0 Z M 5.109375 -1.25 C 6.210938 -1.25 7.082031 -1.550781 7.71875 -2.15625 C 8.351562 -2.769531 8.671875 -3.628906 8.671875 -4.734375 L 8.671875 -5.796875 L 6.890625 -5.71875 C 5.472656 -5.664062 4.445312 -5.441406 3.8125 -5.046875 C 3.1875 -4.660156 2.875 -4.054688 2.875 -3.234375 C 2.875 -2.585938 3.066406 -2.09375 3.453125 -1.75 C 3.847656 -1.414062 4.398438 -1.25 5.109375 -1.25 Z M 5.109375 -1.25 "/></g></g></g><g fill="#49a078" fill-opacity="1"><g transform="translate(253.412982, 313.405935)"><g><path d="M 5.6875 -1.25 C 6.007812 -1.25 6.316406 -1.269531 6.609375 -1.3125 C 6.898438 -1.363281 7.132812 -1.414062 7.3125 -1.46875 L 7.3125 -0.109375 C 7.113281 -0.015625 6.828125 0.0625 6.453125 0.125 C 6.078125 0.1875 5.738281 0.21875 5.4375 0.21875 C 3.15625 0.21875 2.015625 -0.984375 2.015625 -3.390625 L 2.015625 -10.390625 L 0.328125 -10.390625 L 0.328125 -11.25 L 2.015625 -11.984375 L 2.765625 -14.5 L 3.796875 -14.5 L 3.796875 -11.78125 L 7.21875 -11.78125 L 7.21875 -10.390625 L 3.796875 -10.390625 L 3.796875 -3.453125 C 3.796875 -2.742188 3.960938 -2.195312 4.296875 -1.8125 C 4.640625 -1.4375 5.101562 -1.25 5.6875 -1.25 Z M 5.6875 -1.25 "/></g></g></g><g fill="#49a078" fill-opacity="1"><g transform="translate(261.178209, 313.405935)"><g><path d="M 3.671875 0 L 1.890625 0 L 1.890625 -11.78125 L 3.671875 -11.78125 Z M 1.734375 -14.96875 C 1.734375 -15.375 1.832031 -15.671875 2.03125 -15.859375 C 2.238281 -16.046875 2.492188 -16.140625 2.796875 -16.140625 C 3.078125 -16.140625 3.320312 -16.039062 3.53125 -15.84375 C 3.738281 -15.65625 3.84375 -15.363281 3.84375 -14.96875 C 3.84375 -14.5625 3.738281 -14.257812 3.53125 -14.0625 C 3.320312 -13.863281 3.078125 -13.765625 2.796875 -13.765625 C 2.492188 -13.765625 2.238281 -13.863281 2.03125 -14.0625 C 1.832031 -14.257812 1.734375 -14.5625 1.734375 -14.96875 Z M 1.734375 -14.96875 "/></g></g></g><g fill="#49a078" fill-opacity="1"><g transform="translate(266.741674, 313.405935)"><g><path d="M 4.46875 0 L 0 -11.78125 L 1.90625 -11.78125 L 4.453125 -4.796875 C 5.023438 -3.160156 5.359375 -2.097656 5.453125 -1.609375 L 5.546875 -1.609375 C 5.617188 -1.992188 5.863281 -2.78125 6.28125 -3.96875 C 6.707031 -5.164062 7.648438 -7.769531 9.109375 -11.78125 L 11.015625 -11.78125 L 6.546875 0 Z M 4.46875 0 "/></g></g></g><g fill="#49a078" fill-opacity="1"><g transform="translate(277.761201, 313.405935)"><g><path d="M 9.125 0 L 8.78125 -1.671875 L 8.6875 -1.671875 C 8.101562 -0.929688 7.519531 -0.429688 6.9375 -0.171875 C 6.351562 0.0859375 5.625 0.21875 4.75 0.21875 C 3.582031 0.21875 2.664062 -0.0820312 2 -0.6875 C 1.34375 -1.289062 1.015625 -2.144531 1.015625 -3.25 C 1.015625 -5.632812 2.914062 -6.882812 6.71875 -7 L 8.71875 -7.0625 L 8.71875 -7.78125 C 8.71875 -8.707031 8.515625 -9.390625 8.109375 -9.828125 C 7.710938 -10.273438 7.078125 -10.5 6.203125 -10.5 C 5.222656 -10.5 4.113281 -10.195312 2.875 -9.59375 L 2.328125 -10.953125 C 2.910156 -11.273438 3.546875 -11.523438 4.234375 -11.703125 C 4.929688 -11.878906 5.625 -11.96875 6.3125 -11.96875 C 7.71875 -11.96875 8.757812 -11.65625 9.4375 -11.03125 C 10.113281 -10.40625 10.453125 -9.40625 10.453125 -8.03125 L 10.453125 0 Z M 5.109375 -1.25 C 6.210938 -1.25 7.082031 -1.550781 7.71875 -2.15625 C 8.351562 -2.769531 8.671875 -3.628906 8.671875 -4.734375 L 8.671875 -5.796875 L 6.890625 -5.71875 C 5.472656 -5.664062 4.445312 -5.441406 3.8125 -5.046875 C 3.1875 -4.660156 2.875 -4.054688 2.875 -3.234375 C 2.875 -2.585938 3.066406 -2.09375 3.453125 -1.75 C 3.847656 -1.414062 4.398438 -1.25 5.109375 -1.25 Z M 5.109375 -1.25 "/></g></g></g><g fill="#49a078" fill-opacity="1"><g transform="translate(289.994396, 313.405935)"><g><path d="M 9.484375 -3.21875 C 9.484375 -2.113281 9.070312 -1.265625 8.25 -0.671875 C 7.4375 -0.078125 6.296875 0.21875 4.828125 0.21875 C 3.265625 0.21875 2.046875 -0.03125 1.171875 -0.53125 L 1.171875 -2.1875 C 1.734375 -1.894531 2.335938 -1.664062 2.984375 -1.5 C 3.640625 -1.332031 4.265625 -1.25 4.859375 -1.25 C 5.796875 -1.25 6.515625 -1.398438 7.015625 -1.703125 C 7.515625 -2.003906 7.765625 -2.457031 7.765625 -3.0625 C 7.765625 -3.519531 7.566406 -3.910156 7.171875 -4.234375 C 6.773438 -4.566406 6 -4.953125 4.84375 -5.390625 C 3.75 -5.796875 2.96875 -6.148438 2.5 -6.453125 C 2.039062 -6.765625 1.695312 -7.113281 1.46875 -7.5 C 1.25 -7.882812 1.140625 -8.347656 1.140625 -8.890625 C 1.140625 -9.847656 1.53125 -10.601562 2.3125 -11.15625 C 3.09375 -11.707031 4.160156 -11.984375 5.515625 -11.984375 C 6.785156 -11.984375 8.023438 -11.726562 9.234375 -11.21875 L 8.609375 -9.765625 C 7.421875 -10.253906 6.347656 -10.5 5.390625 -10.5 C 4.546875 -10.5 3.910156 -10.363281 3.484375 -10.09375 C 3.054688 -9.832031 2.84375 -9.46875 2.84375 -9 C 2.84375 -8.6875 2.921875 -8.414062 3.078125 -8.1875 C 3.234375 -7.96875 3.488281 -7.757812 3.84375 -7.5625 C 4.207031 -7.363281 4.898438 -7.070312 5.921875 -6.6875 C 7.316406 -6.1875 8.257812 -5.675781 8.75 -5.15625 C 9.238281 -4.644531 9.484375 -4 9.484375 -3.21875 Z M 9.484375 -3.21875 "/></g></g></g><g fill="#49a078" fill-opacity="1"><g transform="translate(95.914057, 93.703052)"><g><path d="M 7 0 L 5.171875 0 L 5.171875 -14.078125 L 0.1875 -14.078125 L 0.1875 -15.703125 L 11.96875 -15.703125 L 11.96875 -14.078125 L 7 -14.078125 Z M 7 0 "/></g></g></g><g fill="#49a078" fill-opacity="1"><g transform="translate(108.082799, 93.703052)"><g><path d="M 6.859375 0.21875 C 5.117188 0.21875 3.742188 -0.3125 2.734375 -1.375 C 1.734375 -2.4375 1.234375 -3.910156 1.234375 -5.796875 C 1.234375 -7.691406 1.703125 -9.195312 2.640625 -10.3125 C 3.578125 -11.425781 4.832031 -11.984375 6.40625 -11.984375 C 7.875 -11.984375 9.035156 -11.5 9.890625 -10.53125 C 10.753906 -9.5625 11.1875 -8.28125 11.1875 -6.6875 L 11.1875 -5.5625 L 3.078125 -5.5625 C 3.117188 -4.175781 3.46875 -3.125 4.125 -2.40625 C 4.789062 -1.695312 5.722656 -1.34375 6.921875 -1.34375 C 8.191406 -1.34375 9.445312 -1.609375 10.6875 -2.140625 L 10.6875 -0.546875 C 10.0625 -0.273438 9.46875 -0.0820312 8.90625 0.03125 C 8.34375 0.15625 7.660156 0.21875 6.859375 0.21875 Z M 6.375 -10.5 C 5.4375 -10.5 4.6875 -10.1875 4.125 -9.5625 C 3.5625 -8.945312 3.226562 -8.097656 3.125 -7.015625 L 9.28125 -7.015625 C 9.28125 -8.140625 9.03125 -9 8.53125 -9.59375 C 8.03125 -10.195312 7.3125 -10.5 6.375 -10.5 Z M 6.375 -10.5 "/></g></g></g><g fill="#49a078" fill-opacity="1"><g transform="translate(120.423386, 93.703052)"><g><path d="M 7.265625 -11.984375 C 7.785156 -11.984375 8.253906 -11.941406 8.671875 -11.859375 L 8.421875 -10.203125 C 7.929688 -10.304688 7.503906 -10.359375 7.140625 -10.359375 C 6.179688 -10.359375 5.363281 -9.972656 4.6875 -9.203125 C 4.007812 -8.429688 3.671875 -7.46875 3.671875 -6.3125 L 3.671875 0 L 1.890625 0 L 1.890625 -11.78125 L 3.359375 -11.78125 L 3.5625 -9.59375 L 3.65625 -9.59375 C 4.09375 -10.363281 4.617188 -10.953125 5.234375 -11.359375 C 5.847656 -11.773438 6.523438 -11.984375 7.265625 -11.984375 Z M 7.265625 -11.984375 "/></g></g></g><g fill="#49a078" fill-opacity="1"><g transform="translate(129.402259, 93.703052)"><g><path d="M 9.125 0 L 8.78125 -1.671875 L 8.6875 -1.671875 C 8.101562 -0.929688 7.519531 -0.429688 6.9375 -0.171875 C 6.351562 0.0859375 5.625 0.21875 4.75 0.21875 C 3.582031 0.21875 2.664062 -0.0820312 2 -0.6875 C 1.34375 -1.289062 1.015625 -2.144531 1.015625 -3.25 C 1.015625 -5.632812 2.914062 -6.882812 6.71875 -7 L 8.71875 -7.0625 L 8.71875 -7.78125 C 8.71875 -8.707031 8.515625 -9.390625 8.109375 -9.828125 C 7.710938 -10.273438 7.078125 -10.5 6.203125 -10.5 C 5.222656 -10.5 4.113281 -10.195312 2.875 -9.59375 L 2.328125 -10.953125 C 2.910156 -11.273438 3.546875 -11.523438 4.234375 -11.703125 C 4.929688 -11.878906 5.625 -11.96875 6.3125 -11.96875 C 7.71875 -11.96875 8.757812 -11.65625 9.4375 -11.03125 C 10.113281 -10.40625 10.453125 -9.40625 10.453125 -8.03125 L 10.453125 0 Z M 5.109375 -1.25 C 6.210938 -1.25 7.082031 -1.550781 7.71875 -2.15625 C 8.351562 -2.769531 8.671875 -3.628906 8.671875 -4.734375 L 8.671875 -5.796875 L 6.890625 -5.71875 C 5.472656 -5.664062 4.445312 -5.441406 3.8125 -5.046875 C 3.1875 -4.660156 2.875 -4.054688 2.875 -3.234375 C 2.875 -2.585938 3.066406 -2.09375 3.453125 -1.75 C 3.847656 -1.414062 4.398438 -1.25 5.109375 -1.25 Z M 5.109375 -1.25 "/></g></g></g><g fill="#49a078" fill-opacity="1"><g transform="translate(141.635443, 93.703052)"><g><path d="M 7.375 0.21875 C 6.601562 0.21875 5.898438 0.078125 5.265625 -0.203125 C 4.628906 -0.492188 4.097656 -0.929688 3.671875 -1.515625 L 3.546875 -1.515625 C 3.628906 -0.828125 3.671875 -0.175781 3.671875 0.4375 L 3.671875 5.28125 L 1.890625 5.28125 L 1.890625 -11.78125 L 3.34375 -11.78125 L 3.59375 -10.15625 L 3.671875 -10.15625 C 4.128906 -10.800781 4.660156 -11.265625 5.265625 -11.546875 C 5.878906 -11.835938 6.582031 -11.984375 7.375 -11.984375 C 8.9375 -11.984375 10.140625 -11.445312 10.984375 -10.375 C 11.828125 -9.3125 12.25 -7.816406 12.25 -5.890625 C 12.25 -3.960938 11.816406 -2.460938 10.953125 -1.390625 C 10.097656 -0.316406 8.90625 0.21875 7.375 0.21875 Z M 7.109375 -10.46875 C 5.910156 -10.46875 5.039062 -10.132812 4.5 -9.46875 C 3.96875 -8.800781 3.691406 -7.742188 3.671875 -6.296875 L 3.671875 -5.890625 C 3.671875 -4.242188 3.945312 -3.0625 4.5 -2.34375 C 5.050781 -1.632812 5.9375 -1.28125 7.15625 -1.28125 C 8.175781 -1.28125 8.972656 -1.691406 9.546875 -2.515625 C 10.117188 -3.335938 10.40625 -4.472656 10.40625 -5.921875 C 10.40625 -7.390625 10.117188 -8.515625 9.546875 -9.296875 C 8.972656 -10.078125 8.160156 -10.46875 7.109375 -10.46875 Z M 7.109375 -10.46875 "/></g></g></g><g fill="#49a078" fill-opacity="1"><g transform="translate(155.1145, 93.703052)"><g><path d="M 6.859375 0.21875 C 5.117188 0.21875 3.742188 -0.3125 2.734375 -1.375 C 1.734375 -2.4375 1.234375 -3.910156 1.234375 -5.796875 C 1.234375 -7.691406 1.703125 -9.195312 2.640625 -10.3125 C 3.578125 -11.425781 4.832031 -11.984375 6.40625 -11.984375 C 7.875 -11.984375 9.035156 -11.5 9.890625 -10.53125 C 10.753906 -9.5625 11.1875 -8.28125 11.1875 -6.6875 L 11.1875 -5.5625 L 3.078125 -5.5625 C 3.117188 -4.175781 3.46875 -3.125 4.125 -2.40625 C 4.789062 -1.695312 5.722656 -1.34375 6.921875 -1.34375 C 8.191406 -1.34375 9.445312 -1.609375 10.6875 -2.140625 L 10.6875 -0.546875 C 10.0625 -0.273438 9.46875 -0.0820312 8.90625 0.03125 C 8.34375 0.15625 7.660156 0.21875 6.859375 0.21875 Z M 6.375 -10.5 C 5.4375 -10.5 4.6875 -10.1875 4.125 -9.5625 C 3.5625 -8.945312 3.226562 -8.097656 3.125 -7.015625 L 9.28125 -7.015625 C 9.28125 -8.140625 9.03125 -9 8.53125 -9.59375 C 8.03125 -10.195312 7.3125 -10.5 6.375 -10.5 Z M 6.375 -10.5 "/></g></g></g><g fill="#49a078" fill-opacity="1"><g transform="translate(167.455086, 93.703052)"><g><path d="M 3.5625 -11.78125 L 3.5625 -4.140625 C 3.5625 -3.179688 3.78125 -2.460938 4.21875 -1.984375 C 4.65625 -1.515625 5.34375 -1.28125 6.28125 -1.28125 C 7.507812 -1.28125 8.40625 -1.613281 8.96875 -2.28125 C 9.539062 -2.957031 9.828125 -4.0625 9.828125 -5.59375 L 9.828125 -11.78125 L 11.609375 -11.78125 L 11.609375 0 L 10.140625 0 L 9.890625 -1.578125 L 9.78125 -1.578125 C 9.414062 -0.992188 8.910156 -0.546875 8.265625 -0.234375 C 7.617188 0.0664062 6.878906 0.21875 6.046875 0.21875 C 4.617188 0.21875 3.546875 -0.117188 2.828125 -0.796875 C 2.117188 -1.484375 1.765625 -2.578125 1.765625 -4.078125 L 1.765625 -11.78125 Z M 3.5625 -11.78125 "/></g></g></g><g fill="#49a078" fill-opacity="1"><g transform="translate(180.955623, 93.703052)"><g><path d="M 5.6875 -1.25 C 6.007812 -1.25 6.316406 -1.269531 6.609375 -1.3125 C 6.898438 -1.363281 7.132812 -1.414062 7.3125 -1.46875 L 7.3125 -0.109375 C 7.113281 -0.015625 6.828125 0.0625 6.453125 0.125 C 6.078125 0.1875 5.738281 0.21875 5.4375 0.21875 C 3.15625 0.21875 2.015625 -0.984375 2.015625 -3.390625 L 2.015625 -10.390625 L 0.328125 -10.390625 L 0.328125 -11.25 L 2.015625 -11.984375 L 2.765625 -14.5 L 3.796875 -14.5 L 3.796875 -11.78125 L 7.21875 -11.78125 L 7.21875 -10.390625 L 3.796875 -10.390625 L 3.796875 -3.453125 C 3.796875 -2.742188 3.960938 -2.195312 4.296875 -1.8125 C 4.640625 -1.4375 5.101562 -1.25 5.6875 -1.25 Z M 5.6875 -1.25 "/></g></g></g><g fill="#49a078" fill-opacity="1"><g transform="translate(188.720851, 93.703052)"><g><path d="M 9.125 0 L 8.78125 -1.671875 L 8.6875 -1.671875 C 8.101562 -0.929688 7.519531 -0.429688 6.9375 -0.171875 C 6.351562 0.0859375 5.625 0.21875 4.75 0.21875 C 3.582031 0.21875 2.664062 -0.0820312 2 -0.6875 C 1.34375 -1.289062 1.015625 -2.144531 1.015625 -3.25 C 1.015625 -5.632812 2.914062 -6.882812 6.71875 -7 L 8.71875 -7.0625 L 8.71875 -7.78125 C 8.71875 -8.707031 8.515625 -9.390625 8.109375 -9.828125 C 7.710938 -10.273438 7.078125 -10.5 6.203125 -10.5 C 5.222656 -10.5 4.113281 -10.195312 2.875 -9.59375 L 2.328125 -10.953125 C 2.910156 -11.273438 3.546875 -11.523438 4.234375 -11.703125 C 4.929688 -11.878906 5.625 -11.96875 6.3125 -11.96875 C 7.71875 -11.96875 8.757812 -11.65625 9.4375 -11.03125 C 10.113281 -10.40625 10.453125 -9.40625 10.453125 -8.03125 L 10.453125 0 Z M 5.109375 -1.25 C 6.210938 -1.25 7.082031 -1.550781 7.71875 -2.15625 C 8.351562 -2.769531 8.671875 -3.628906 8.671875 -4.734375 L 8.671875 -5.796875 L 6.890625 -5.71875 C 5.472656 -5.664062 4.445312 -5.441406 3.8125 -5.046875 C 3.1875 -4.660156 2.875 -4.054688 2.875 -3.234375 C 2.875 -2.585938 3.066406 -2.09375 3.453125 -1.75 C 3.847656 -1.414062 4.398438 -1.25 5.109375 -1.25 Z M 5.109375 -1.25 "/></g></g></g><g fill="#49a078" fill-opacity="1"><g transform="translate(200.954035, 93.703052)"><g/></g></g><g fill="#49a078" fill-opacity="1"><g transform="translate(206.667864, 93.703052)"><g><path d="M 9.953125 0 L 9.953125 -7.609375 C 9.953125 -8.578125 9.734375 -9.296875 9.296875 -9.765625 C 8.859375 -10.234375 8.171875 -10.46875 7.234375 -10.46875 C 5.992188 -10.46875 5.085938 -10.128906 4.515625 -9.453125 C 3.953125 -8.785156 3.671875 -7.6875 3.671875 -6.15625 L 3.671875 0 L 1.890625 0 L 1.890625 -16.71875 L 3.671875 -16.71875 L 3.671875 -11.65625 C 3.671875 -11.050781 3.644531 -10.546875 3.59375 -10.140625 L 3.703125 -10.140625 C 4.046875 -10.703125 4.539062 -11.144531 5.1875 -11.46875 C 5.84375 -11.800781 6.582031 -11.96875 7.40625 -11.96875 C 8.851562 -11.96875 9.9375 -11.625 10.65625 -10.9375 C 11.375 -10.257812 11.734375 -9.175781 11.734375 -7.6875 L 11.734375 0 Z M 9.953125 0 "/></g></g></g><g fill="#49a078" fill-opacity="1"><g transform="translate(220.168401, 93.703052)"><g><path d="M 12.046875 -5.890625 C 12.046875 -3.972656 11.5625 -2.472656 10.59375 -1.390625 C 9.632812 -0.316406 8.300781 0.21875 6.59375 0.21875 C 5.539062 0.21875 4.601562 -0.0234375 3.78125 -0.515625 C 2.96875 -1.015625 2.335938 -1.726562 1.890625 -2.65625 C 1.453125 -3.582031 1.234375 -4.660156 1.234375 -5.890625 C 1.234375 -7.816406 1.710938 -9.3125 2.671875 -10.375 C 3.628906 -11.445312 4.960938 -11.984375 6.671875 -11.984375 C 8.316406 -11.984375 9.625 -11.4375 10.59375 -10.34375 C 11.5625 -9.25 12.046875 -7.765625 12.046875 -5.890625 Z M 3.078125 -5.890625 C 3.078125 -4.390625 3.378906 -3.242188 3.984375 -2.453125 C 4.585938 -1.671875 5.472656 -1.28125 6.640625 -1.28125 C 7.804688 -1.28125 8.691406 -1.671875 9.296875 -2.453125 C 9.898438 -3.234375 10.203125 -4.378906 10.203125 -5.890625 C 10.203125 -7.390625 9.898438 -8.523438 9.296875 -9.296875 C 8.691406 -10.078125 7.800781 -10.46875 6.625 -10.46875 C 5.445312 -10.46875 4.5625 -10.082031 3.96875 -9.3125 C 3.375 -8.550781 3.078125 -7.410156 3.078125 -5.890625 Z M 3.078125 -5.890625 "/></g></g></g><g fill="#49a078" fill-opacity="1"><g transform="translate(233.454132, 93.703052)"><g><path d="M 3.671875 0 L 1.890625 0 L 1.890625 -16.71875 L 3.671875 -16.71875 Z M 3.671875 0 "/></g></g></g><g fill="#49a078" fill-opacity="1"><g transform="translate(239.017597, 93.703052)"><g><path d="M 3.671875 0 L 1.890625 0 L 1.890625 -11.78125 L 3.671875 -11.78125 Z M 1.8125 -13.59375 C 2.15625 -14.039062 2.523438 -14.578125 2.921875 -15.203125 C 3.328125 -15.835938 3.644531 -16.390625 3.875 -16.859375 L 6.03125 -16.859375 L 6.03125 -16.625 C 5.71875 -16.164062 5.25 -15.59375 4.625 -14.90625 C 4.007812 -14.226562 3.472656 -13.703125 3.015625 -13.328125 L 1.8125 -13.328125 Z M 1.8125 -13.59375 "/></g></g></g><g fill="#49a078" fill-opacity="1"><g transform="translate(244.581062, 93.703052)"><g><path d="M 9.484375 -3.21875 C 9.484375 -2.113281 9.070312 -1.265625 8.25 -0.671875 C 7.4375 -0.078125 6.296875 0.21875 4.828125 0.21875 C 3.265625 0.21875 2.046875 -0.03125 1.171875 -0.53125 L 1.171875 -2.1875 C 1.734375 -1.894531 2.335938 -1.664062 2.984375 -1.5 C 3.640625 -1.332031 4.265625 -1.25 4.859375 -1.25 C 5.796875 -1.25 6.515625 -1.398438 7.015625 -1.703125 C 7.515625 -2.003906 7.765625 -2.457031 7.765625 -3.0625 C 7.765625 -3.519531 7.566406 -3.910156 7.171875 -4.234375 C 6.773438 -4.566406 6 -4.953125 4.84375 -5.390625 C 3.75 -5.796875 2.96875 -6.148438 2.5 -6.453125 C 2.039062 -6.765625 1.695312 -7.113281 1.46875 -7.5 C 1.25 -7.882812 1.140625 -8.347656 1.140625 -8.890625 C 1.140625 -9.847656 1.53125 -10.601562 2.3125 -11.15625 C 3.09375 -11.707031 4.160156 -11.984375 5.515625 -11.984375 C 6.785156 -11.984375 8.023438 -11.726562 9.234375 -11.21875 L 8.609375 -9.765625 C 7.421875 -10.253906 6.347656 -10.5 5.390625 -10.5 C 4.546875 -10.5 3.910156 -10.363281 3.484375 -10.09375 C 3.054688 -9.832031 2.84375 -9.46875 2.84375 -9 C 2.84375 -8.6875 2.921875 -8.414062 3.078125 -8.1875 C 3.234375 -7.96875 3.488281 -7.757812 3.84375 -7.5625 C 4.207031 -7.363281 4.898438 -7.070312 5.921875 -6.6875 C 7.316406 -6.1875 8.257812 -5.675781 8.75 -5.15625 C 9.238281 -4.644531 9.484375 -4 9.484375 -3.21875 Z M 9.484375 -3.21875 "/></g></g></g><g fill="#49a078" fill-opacity="1"><g transform="translate(255.07432, 93.703052)"><g><path d="M 5.6875 -1.25 C 6.007812 -1.25 6.316406 -1.269531 6.609375 -1.3125 C 6.898438 -1.363281 7.132812 -1.414062 7.3125 -1.46875 L 7.3125 -0.109375 C 7.113281 -0.015625 6.828125 0.0625 6.453125 0.125 C 6.078125 0.1875 5.738281 0.21875 5.4375 0.21875 C 3.15625 0.21875 2.015625 -0.984375 2.015625 -3.390625 L 2.015625 -10.390625 L 0.328125 -10.390625 L 0.328125 -11.25 L 2.015625 -11.984375 L 2.765625 -14.5 L 3.796875 -14.5 L 3.796875 -11.78125 L 7.21875 -11.78125 L 7.21875 -10.390625 L 3.796875 -10.390625 L 3.796875 -3.453125 C 3.796875 -2.742188 3.960938 -2.195312 4.296875 -1.8125 C 4.640625 -1.4375 5.101562 -1.25 5.6875 -1.25 Z M 5.6875 -1.25 "/></g></g></g><g fill="#49a078" fill-opacity="1"><g transform="translate(262.839548, 93.703052)"><g><path d="M 3.671875 0 L 1.890625 0 L 1.890625 -11.78125 L 3.671875 -11.78125 Z M 1.734375 -14.96875 C 1.734375 -15.375 1.832031 -15.671875 2.03125 -15.859375 C 2.238281 -16.046875 2.492188 -16.140625 2.796875 -16.140625 C 3.078125 -16.140625 3.320312 -16.039062 3.53125 -15.84375 C 3.738281 -15.65625 3.84375 -15.363281 3.84375 -14.96875 C 3.84375 -14.5625 3.738281 -14.257812 3.53125 -14.0625 C 3.320312 -13.863281 3.078125 -13.765625 2.796875 -13.765625 C 2.492188 -13.765625 2.238281 -13.863281 2.03125 -14.0625 C 1.832031 -14.257812 1.734375 -14.5625 1.734375 -14.96875 Z M 1.734375 -14.96875 "/></g></g></g><g fill="#49a078" fill-opacity="1"><g transform="translate(268.403013, 93.703052)"><g><path d="M 6.59375 0.21875 C 4.894531 0.21875 3.578125 -0.304688 2.640625 -1.359375 C 1.703125 -2.410156 1.234375 -3.894531 1.234375 -5.8125 C 1.234375 -7.78125 1.707031 -9.300781 2.65625 -10.375 C 3.601562 -11.445312 4.957031 -11.984375 6.71875 -11.984375 C 7.28125 -11.984375 7.84375 -11.921875 8.40625 -11.796875 C 8.976562 -11.679688 9.425781 -11.539062 9.75 -11.375 L 9.203125 -9.859375 C 8.804688 -10.015625 8.375 -10.144531 7.90625 -10.25 C 7.4375 -10.351562 7.023438 -10.40625 6.671875 -10.40625 C 4.273438 -10.40625 3.078125 -8.878906 3.078125 -5.828125 C 3.078125 -4.378906 3.367188 -3.269531 3.953125 -2.5 C 4.535156 -1.726562 5.398438 -1.34375 6.546875 -1.34375 C 7.535156 -1.34375 8.546875 -1.554688 9.578125 -1.984375 L 9.578125 -0.390625 C 8.785156 0.015625 7.789062 0.21875 6.59375 0.21875 Z M 6.59375 0.21875 "/></g></g></g><g fill="#49a078" fill-opacity="1"><g transform="translate(278.874791, 93.703052)"><g><path d="M 12.046875 -5.890625 C 12.046875 -3.972656 11.5625 -2.472656 10.59375 -1.390625 C 9.632812 -0.316406 8.300781 0.21875 6.59375 0.21875 C 5.539062 0.21875 4.601562 -0.0234375 3.78125 -0.515625 C 2.96875 -1.015625 2.335938 -1.726562 1.890625 -2.65625 C 1.453125 -3.582031 1.234375 -4.660156 1.234375 -5.890625 C 1.234375 -7.816406 1.710938 -9.3125 2.671875 -10.375 C 3.628906 -11.445312 4.960938 -11.984375 6.671875 -11.984375 C 8.316406 -11.984375 9.625 -11.4375 10.59375 -10.34375 C 11.5625 -9.25 12.046875 -7.765625 12.046875 -5.890625 Z M 3.078125 -5.890625 C 3.078125 -4.390625 3.378906 -3.242188 3.984375 -2.453125 C 4.585938 -1.671875 5.472656 -1.28125 6.640625 -1.28125 C 7.804688 -1.28125 8.691406 -1.671875 9.296875 -2.453125 C 9.898438 -3.234375 10.203125 -4.378906 10.203125 -5.890625 C 10.203125 -7.390625 9.898438 -8.523438 9.296875 -9.296875 C 8.691406 -10.078125 7.800781 -10.46875 6.625 -10.46875 C 5.445312 -10.46875 4.5625 -10.082031 3.96875 -9.3125 C 3.375 -8.550781 3.078125 -7.410156 3.078125 -5.890625 Z M 3.078125 -5.890625 "/></g></g></g></svg>