<svg xmlns="http://www.w3.org/2000/svg" xmlns:xlink="http://www.w3.org/1999/xlink" width="500" zoomAndPan="magnify" viewBox="0 0 375 374.999991" height="500" preserveAspectRatio="xMidYMid meet" version="1.0"><defs><g/><clipPath id="fec8c49d0c"><path d="M 187 253 L 189 253 L 189 271.921875 L 187 271.921875 Z M 187 253 " clip-rule="nonzero"/></clipPath><clipPath id="45543f73c8"><path d="M 180 103.171875 L 195 103.171875 L 195 118 L 180 118 Z M 180 103.171875 " clip-rule="nonzero"/></clipPath></defs><path fill="#ffffff" d="M 180.894531 128.625 C 180.894531 128.625 173.527344 130.21875 169.242188 114.121094 C 168.253906 110.382812 158.019531 105.578125 154.023438 107.246094 C 125.851562 119.070312 109.09375 123.558594 104.035156 123.316406 C 98.980469 123.074219 111.140625 127.539062 116.675781 127.78125 C 122.214844 128.023438 113.066406 129.472656 113.066406 129.472656 C 113.066406 129.472656 115.957031 135.261719 126.308594 134.058594 L 123.179688 135.503906 C 123.179688 135.503906 126.910156 140.695312 134.738281 139.125 C 138.636719 138.351562 132.808594 141.054688 132.808594 141.054688 C 132.808594 141.054688 138.636719 144.554688 145.570312 142.019531 C 148.21875 141.054688 143.40625 144.433594 143.40625 144.433594 C 143.40625 144.433594 154.238281 144.433594 157.371094 143.226562 C 158.382812 142.839844 150.867188 147.089844 152.554688 147.089844 C 156.886719 147.089844 159.296875 147.59375 163.390625 146.125 C 166.761719 144.917969 160.019531 149.742188 160.019531 149.742188 C 160.5 150.226562 168.207031 149.019531 170.132812 147.332031 C 170.855469 146.679688 168.207031 150.949219 168.207031 150.949219 C 168.207031 150.949219 179.882812 149.621094 181.929688 140.089844 C 184.144531 130.003906 180.894531 128.625 180.894531 128.625 Z M 180.894531 128.625 " fill-opacity="1" fill-rule="nonzero"/><path fill="#ffffff" d="M 258.257812 127.78125 C 263.796875 127.539062 275.980469 123.074219 270.898438 123.316406 C 265.84375 123.558594 249.085938 119.09375 220.914062 107.269531 C 216.914062 105.601562 206.707031 110.40625 205.695312 114.148438 C 201.410156 130.242188 194.042969 128.652344 194.042969 128.652344 C 194.042969 128.652344 190.789062 130.027344 192.957031 140.113281 C 195.003906 149.648438 206.683594 150.972656 206.683594 150.972656 C 206.683594 150.972656 204.035156 146.703125 204.757812 147.355469 C 206.683594 149.042969 214.386719 150.25 214.871094 149.765625 C 214.871094 149.765625 208.128906 144.941406 211.5 146.148438 C 215.589844 147.621094 218 147.113281 222.332031 147.113281 C 224.019531 147.113281 216.507812 142.867188 217.519531 143.25 C 220.648438 144.457031 231.484375 144.457031 231.484375 144.457031 C 231.484375 144.457031 226.667969 141.078125 229.316406 142.042969 C 236.273438 144.578125 242.078125 141.078125 242.078125 141.078125 C 242.078125 141.078125 236.25 138.351562 240.152344 139.148438 C 247.976562 140.71875 251.710938 135.527344 251.710938 135.527344 L 248.578125 134.082031 C 258.933594 135.289062 261.820312 129.496094 261.820312 129.496094 C 261.820312 129.496094 252.71875 128.023438 258.257812 127.78125 Z M 258.257812 127.78125 " fill-opacity="1" fill-rule="nonzero"/><path fill="#ffffff" d="M 186.9375 264.691406 C 186.960938 264.691406 186.9375 264.691406 186.890625 264.667969 C 186.890625 264.691406 186.914062 264.691406 186.9375 264.691406 Z M 186.9375 264.691406 " fill-opacity="1" fill-rule="nonzero"/><path fill="#ffffff" d="M 183.011719 259.984375 C 182.460938 257.113281 185.808594 253.445312 185.808594 253.445312 L 183.300781 252.648438 C 180.21875 255.253906 180.484375 259.574219 181.617188 261.53125 C 183.109375 264.085938 186.335938 264.570312 186.867188 264.644531 C 186.359375 264.496094 183.519531 262.542969 183.011719 259.984375 Z M 183.011719 259.984375 " fill-opacity="1" fill-rule="nonzero"/><path fill="#ffffff" d="M 208.417969 182.347656 C 204.585938 179.113281 199.195312 176.074219 192.234375 175.808594 C 185.253906 175.542969 175.210938 175.011719 173.816406 174.238281 C 172.417969 173.441406 165.726562 171.101562 166.277344 165.359375 C 166.832031 159.613281 169.433594 157.320312 172.011719 157.394531 C 173.574219 157.441406 173.527344 158.457031 177.308594 158.601562 C 180.703125 158.722656 181.039062 157.875 182.605469 157.152344 C 185.976562 155.609375 181.761719 151.988281 179.957031 151.601562 C 176.054688 150.757812 174.660156 150.226562 168.519531 152.566406 C 162.644531 154.8125 158.476562 158.578125 157.925781 163.015625 C 157.539062 166.179688 158.765625 173.996094 161.96875 176.21875 C 166.085938 179.066406 169.914062 181.839844 179.835938 182.757812 C 184.144531 183.167969 190.042969 181.480469 197.148438 184.0625 C 205.382812 187.078125 208.320312 194.003906 196.59375 197.40625 C 196.59375 197.40625 203.722656 200.929688 203.984375 201.460938 C 204.273438 201.992188 210.125 199.363281 211.234375 194.390625 C 212.316406 189.394531 211.210938 184.6875 208.417969 182.347656 Z M 208.417969 182.347656 " fill-opacity="1" fill-rule="nonzero"/><path fill="#ffffff" d="M 217.058594 162.726562 C 216.121094 158.335938 212.96875 154.789062 207.09375 152.519531 C 200.953125 150.152344 199.722656 150.707031 195.824219 151.554688 C 194.015625 151.941406 189.5625 155.65625 192.691406 157.828125 C 194.234375 158.890625 194.066406 158.769531 197.460938 158.648438 C 201.21875 158.527344 202.035156 157.394531 203.601562 157.34375 C 206.152344 157.273438 208.753906 159.566406 209.332031 165.308594 C 209.886719 171.054688 205.769531 172.234375 204.371094 173.03125 C 204.371094 173.03125 198.640625 174.988281 197.820312 174.988281 C 197.003906 174.988281 208.417969 179.425781 208.417969 179.425781 C 208.417969 179.425781 208.851562 179.933594 213.160156 176.023438 C 219.515625 170.304688 217.636719 165.332031 217.058594 162.726562 Z M 217.058594 162.726562 " fill-opacity="1" fill-rule="nonzero"/><path fill="#ffffff" d="M 202.6875 202.859375 C 198.640625 199.070312 192.089844 197.890625 186.503906 198.15625 C 180.917969 198.421875 175.066406 195.789062 175.066406 195.789062 C 166.039062 191.324219 174.226562 185.917969 176.847656 184.421875 C 177.042969 184.300781 177.957031 183.917969 177.742188 183.890625 C 175.140625 183.507812 167.554688 181.40625 167.554688 181.40625 C 167.554688 181.40625 164.0625 184.929688 163.800781 191.203125 C 163.511719 197.480469 170.46875 201.824219 174.972656 203.222656 C 180.003906 204.792969 186.410156 204.527344 192.546875 204.792969 C 198.230469 205.03125 199.917969 208.726562 200.085938 211.332031 C 200.375 215.773438 194.644531 216.691406 194.644531 216.691406 C 194.644531 216.691406 201.074219 220.359375 201.625 220.09375 C 202.179688 219.828125 204.757812 218.597656 205.671875 215.507812 C 207.429688 209.570312 206.660156 206.578125 202.6875 202.859375 Z M 202.6875 202.859375 " fill-opacity="1" fill-rule="nonzero"/><path fill="#ffffff" d="M 188.046875 217.125 C 182.195312 217.125 176.320312 215.820312 175.210938 212.949219 C 174.105469 210.078125 179.113281 205.636719 179.113281 205.636719 L 172.128906 203.535156 C 172.128906 203.535156 164.59375 211.113281 172.683594 219.488281 C 175.597656 222.503906 181.0625 222.09375 189.152344 222.890625 C 197.242188 223.6875 197.796875 226.027344 197.242188 228.902344 C 196.691406 231.773438 191.394531 234.910156 191.394531 234.910156 L 197.53125 237.011719 C 202.832031 233.074219 203.117188 227.863281 201.167969 223.929688 C 199.21875 219.996094 193.898438 217.125 188.046875 217.125 Z M 188.046875 217.125 " fill-opacity="1" fill-rule="nonzero"/><path fill="#ffffff" d="M 192.789062 236.1875 C 190.839844 235.394531 184.769531 235.199219 180.507812 232.519531 C 175.476562 229.382812 180.796875 223.640625 180.796875 223.640625 L 175.5 222.335938 C 175.5 222.335938 173.261719 226.269531 173.261719 228.613281 C 173.261719 229.914062 173.550781 233.847656 178.292969 236.984375 C 183.039062 240.125 188.890625 239.351562 191.417969 239.859375 C 193.945312 240.363281 195.003906 242.753906 194.765625 245.09375 C 194.476562 247.699219 189.730469 249.800781 189.730469 249.800781 L 193.078125 251.371094 C 194.1875 250.839844 196.980469 250.066406 198.109375 245.09375 C 199.21875 240.125 194.28125 236.792969 192.789062 236.1875 Z M 192.789062 236.1875 " fill-opacity="1" fill-rule="nonzero"/><path fill="#ffffff" d="M 186.359375 249.800781 C 182.917969 248.90625 182.507812 248.039062 181.90625 246.929688 C 179.402344 242.488281 183.300781 240.125 183.300781 240.125 L 179.113281 238.820312 C 178.824219 239.085938 177.425781 241.957031 177.425781 245.09375 C 177.425781 246.132812 178.824219 250.863281 183.566406 251.898438 C 188.191406 252.890625 190.671875 254.386719 191.945312 255.570312 C 192.789062 256.363281 193.054688 258.707031 192.5 260.804688 C 191.851562 263.21875 188.046875 264.738281 188.046875 264.738281 C 196.136719 263.941406 194.476562 257.667969 193.898438 255.59375 C 193.152344 252.722656 189.683594 250.667969 186.359375 249.800781 Z M 186.359375 249.800781 " fill-opacity="1" fill-rule="nonzero"/><path fill="#ffffff" d="M 187.035156 249.632812 L 188.429688 249.632812 L 188.671875 240.363281 L 186.769531 240.363281 Z M 187.035156 249.632812 " fill-opacity="1" fill-rule="nonzero"/><path fill="#ffffff" d="M 186.601562 234.523438 L 188.816406 234.523438 L 189.082031 223.375 L 186.3125 223.375 Z M 186.601562 234.523438 " fill-opacity="1" fill-rule="nonzero"/><path fill="#ffffff" d="M 185.566406 197.214844 L 189.730469 197.214844 L 190.042969 183.675781 L 185.203125 183.675781 Z M 185.566406 197.214844 " fill-opacity="1" fill-rule="nonzero"/><path fill="#ffffff" d="M 184.941406 174.503906 L 190.285156 174.503906 L 191.632812 119.914062 L 183.421875 119.914062 Z M 184.941406 174.503906 " fill-opacity="1" fill-rule="nonzero"/><path fill="#ffffff" d="M 186.09375 216.328125 L 189.25 216.328125 L 189.515625 205.660156 L 185.808594 205.660156 Z M 186.09375 216.328125 " fill-opacity="1" fill-rule="nonzero"/><g clip-path="url(#fec8c49d0c)"><path fill="#ffffff" d="M 187.636719 271.835938 L 187.878906 271.835938 L 188.335938 253.589844 L 187.132812 253.589844 Z M 187.636719 271.835938 " fill-opacity="1" fill-rule="nonzero"/></g><path fill="#ffffff" d="M 182.097656 118.464844 L 192.933594 118.464844 L 192.933594 119.191406 L 182.097656 119.191406 Z M 182.097656 118.464844 " fill-opacity="1" fill-rule="nonzero"/><g clip-path="url(#45543f73c8)"><path fill="#ffffff" d="M 194.738281 110.503906 C 194.738281 110.976562 194.695312 111.449219 194.601562 111.914062 C 194.507812 112.382812 194.371094 112.832031 194.191406 113.273438 C 194.007812 113.710938 193.785156 114.128906 193.523438 114.523438 C 193.257812 114.921875 192.960938 115.285156 192.625 115.621094 C 192.289062 115.957031 191.921875 116.257812 191.53125 116.523438 C 191.136719 116.785156 190.71875 117.007812 190.28125 117.191406 C 189.84375 117.375 189.390625 117.511719 188.925781 117.601562 C 188.460938 117.695312 187.992188 117.742188 187.515625 117.742188 C 187.042969 117.742188 186.570312 117.695312 186.105469 117.601562 C 185.640625 117.511719 185.191406 117.375 184.75 117.191406 C 184.3125 117.007812 183.898438 116.785156 183.503906 116.523438 C 183.109375 116.257812 182.742188 115.957031 182.410156 115.621094 C 182.074219 115.285156 181.773438 114.921875 181.511719 114.523438 C 181.246094 114.128906 181.023438 113.710938 180.84375 113.273438 C 180.660156 112.832031 180.523438 112.382812 180.429688 111.914062 C 180.339844 111.449219 180.292969 110.976562 180.292969 110.503906 C 180.292969 110.027344 180.339844 109.554688 180.429688 109.089844 C 180.523438 108.625 180.660156 108.171875 180.84375 107.730469 C 181.023438 107.292969 181.246094 106.875 181.511719 106.480469 C 181.773438 106.085938 182.074219 105.71875 182.410156 105.382812 C 182.742188 105.046875 183.109375 104.746094 183.503906 104.484375 C 183.898438 104.21875 184.3125 103.996094 184.75 103.8125 C 185.191406 103.632812 185.640625 103.496094 186.105469 103.402344 C 186.570312 103.308594 187.042969 103.261719 187.515625 103.261719 C 187.992188 103.261719 188.460938 103.308594 188.925781 103.402344 C 189.390625 103.496094 189.84375 103.632812 190.28125 103.8125 C 190.71875 103.996094 191.136719 104.21875 191.53125 104.484375 C 191.921875 104.746094 192.289062 105.046875 192.625 105.382812 C 192.960938 105.71875 193.257812 106.085938 193.523438 106.480469 C 193.785156 106.875 194.007812 107.292969 194.191406 107.730469 C 194.371094 108.171875 194.507812 108.625 194.601562 109.089844 C 194.695312 109.554688 194.738281 110.027344 194.738281 110.503906 Z M 194.738281 110.503906 " fill-opacity="1" fill-rule="nonzero"/></g><g fill="#ffffff" fill-opacity="1"><g transform="translate(78.066402, 74.949993)"><g><path d="M 24.8125 -2.015625 C 24.882812 -1.796875 24.921875 -1.597656 24.921875 -1.421875 C 24.921875 -1.242188 24.863281 -1.054688 24.75 -0.859375 C 24.632812 -0.671875 24.5 -0.515625 24.34375 -0.390625 C 24.019531 -0.128906 23.664062 0 23.28125 0 C 22.507812 0 21.992188 -0.320312 21.734375 -0.96875 L 19.390625 -6.921875 L 6.25 -6.921875 L 3.890625 -0.96875 C 3.671875 -0.320312 3.222656 0 2.546875 0 C 1.835938 0 1.34375 -0.285156 1.0625 -0.859375 C 0.957031 -1.054688 0.90625 -1.242188 0.90625 -1.421875 C 0.90625 -1.597656 0.941406 -1.796875 1.015625 -2.015625 L 9.8125 -23.5625 C 10.425781 -25.238281 11.164062 -26.171875 12.03125 -26.359375 C 12.28125 -26.421875 12.566406 -26.453125 12.890625 -26.453125 C 13.566406 -26.453125 14.0625 -26.328125 14.375 -26.078125 C 14.988281 -25.523438 15.503906 -24.6875 15.921875 -23.5625 Z M 7.21875 -9.421875 L 18.46875 -9.421875 L 12.84375 -23.71875 Z M 7.21875 -9.421875 "/></g></g></g><g fill="#ffffff" fill-opacity="1"><g transform="translate(103.843335, 74.949993)"><g><path d="M 4.46875 -18.375 C 5.40625 -18.375 5.875 -17.910156 5.875 -16.984375 L 5.875 -15.34375 C 6.675781 -17.65625 8.359375 -18.8125 10.921875 -18.8125 C 11.398438 -18.8125 11.765625 -18.671875 12.015625 -18.390625 C 12.273438 -18.117188 12.40625 -17.820312 12.40625 -17.5 C 12.40625 -17.1875 12.285156 -16.898438 12.046875 -16.640625 C 11.804688 -16.390625 11.347656 -16.265625 10.671875 -16.265625 C 10.003906 -16.265625 9.359375 -16.125 8.734375 -15.84375 C 8.109375 -15.570312 7.585938 -15.195312 7.171875 -14.71875 C 6.304688 -13.65625 5.875 -12.242188 5.875 -10.484375 L 5.875 -1.390625 C 5.875 -0.941406 5.710938 -0.597656 5.390625 -0.359375 C 5.066406 -0.117188 4.757812 0 4.46875 0 C 4.1875 0 3.957031 -0.0195312 3.78125 -0.0625 C 3.601562 -0.113281 3.445312 -0.1875 3.3125 -0.28125 C 3.03125 -0.539062 2.890625 -0.910156 2.890625 -1.390625 L 2.890625 -16.984375 C 2.890625 -17.429688 3.039062 -17.773438 3.34375 -18.015625 C 3.644531 -18.253906 4.019531 -18.375 4.46875 -18.375 Z M 4.46875 -18.375 "/></g></g></g><g fill="#ffffff" fill-opacity="1"><g transform="translate(116.97226, 74.949993)"><g><path d="M 6.390625 -24.765625 C 6.390625 -24.316406 6.210938 -23.925781 5.859375 -23.59375 C 5.515625 -23.257812 5.019531 -23.09375 4.375 -23.09375 C 3.738281 -23.09375 3.242188 -23.257812 2.890625 -23.59375 C 2.535156 -23.925781 2.359375 -24.316406 2.359375 -24.765625 C 2.359375 -25.222656 2.535156 -25.625 2.890625 -25.96875 C 3.242188 -26.320312 3.738281 -26.5 4.375 -26.5 C 5.019531 -26.5 5.515625 -26.320312 5.859375 -25.96875 C 6.210938 -25.625 6.390625 -25.222656 6.390625 -24.765625 Z M 2.9375 -16.890625 C 2.9375 -17.367188 3.085938 -17.734375 3.390625 -17.984375 C 3.691406 -18.242188 3.988281 -18.375 4.28125 -18.375 C 4.570312 -18.375 4.796875 -18.34375 4.953125 -18.28125 C 5.109375 -18.21875 5.253906 -18.117188 5.390625 -17.984375 C 5.710938 -17.765625 5.875 -17.398438 5.875 -16.890625 L 5.875 -1.484375 C 5.875 -1.003906 5.710938 -0.632812 5.390625 -0.375 C 5.066406 -0.125 4.71875 0 4.34375 0 C 3.976562 0 3.648438 -0.117188 3.359375 -0.359375 C 3.078125 -0.597656 2.9375 -0.972656 2.9375 -1.484375 Z M 2.9375 -16.890625 "/></g></g></g><g fill="#ffffff" fill-opacity="1"><g transform="translate(125.724872, 74.949993)"><g><path d="M 19.34375 -9.765625 C 19.34375 -9.472656 19.242188 -9.222656 19.046875 -9.015625 C 18.859375 -8.804688 18.554688 -8.703125 18.140625 -8.703125 L 4.859375 -8.703125 C 4.921875 -6.328125 5.546875 -4.613281 6.734375 -3.5625 C 7.984375 -2.4375 9.425781 -1.875 11.0625 -1.875 C 12.789062 -1.875 14.632812 -2.515625 16.59375 -3.796875 C 16.851562 -3.992188 17.117188 -4.09375 17.390625 -4.09375 C 17.660156 -4.09375 17.875 -3.992188 18.03125 -3.796875 C 18.195312 -3.609375 18.28125 -3.414062 18.28125 -3.21875 C 18.28125 -2.832031 18.148438 -2.515625 17.890625 -2.265625 C 16.003906 -0.492188 13.648438 0.390625 10.828125 0.390625 C 8.191406 0.390625 6.054688 -0.460938 4.421875 -2.171875 C 2.628906 -3.992188 1.734375 -6.332031 1.734375 -9.1875 C 1.734375 -11.851562 2.488281 -14.082031 4 -15.875 C 5.632812 -17.832031 7.8125 -18.8125 10.53125 -18.8125 C 13.382812 -18.8125 15.582031 -17.941406 17.125 -16.203125 C 18.53125 -14.609375 19.269531 -12.460938 19.34375 -9.765625 Z M 16.40625 -10.625 C 16.269531 -12.425781 15.722656 -13.851562 14.765625 -14.90625 C 13.804688 -15.96875 12.410156 -16.5 10.578125 -16.5 C 8.972656 -16.5 7.660156 -15.921875 6.640625 -14.765625 C 5.640625 -13.640625 5.078125 -12.257812 4.953125 -10.625 Z M 16.40625 -10.625 "/></g></g></g><g fill="#ffffff" fill-opacity="1"><g transform="translate(146.692679, 74.949993)"><g><path d="M 2.9375 -24.96875 C 2.9375 -25.445312 3.085938 -25.8125 3.390625 -26.0625 C 3.691406 -26.320312 3.988281 -26.453125 4.28125 -26.453125 C 4.570312 -26.453125 4.796875 -26.421875 4.953125 -26.359375 C 5.109375 -26.296875 5.253906 -26.203125 5.390625 -26.078125 C 5.710938 -25.816406 5.875 -25.445312 5.875 -24.96875 L 5.875 -1.484375 C 5.875 -1.003906 5.710938 -0.632812 5.390625 -0.375 C 5.066406 -0.125 4.71875 0 4.34375 0 C 3.976562 0 3.648438 -0.117188 3.359375 -0.359375 C 3.078125 -0.597656 2.9375 -0.972656 2.9375 -1.484375 Z M 2.9375 -24.96875 "/></g></g></g><g fill="#ffffff" fill-opacity="1"><g transform="translate(155.445291, 74.949993)"><g/></g></g><g fill="#ffffff" fill-opacity="1"><g transform="translate(165.881101, 74.949993)"><g><path d="M 12.03125 -2.84375 L 12.125 -2.84375 L 20.0625 -25.34375 C 20.3125 -26.082031 20.804688 -26.453125 21.546875 -26.453125 C 22.160156 -26.453125 22.625 -26.164062 22.9375 -25.59375 C 23.039062 -25.425781 23.09375 -25.265625 23.09375 -25.109375 C 23.09375 -24.953125 23.0625 -24.773438 23 -24.578125 L 14.671875 -1.96875 C 14.222656 -0.65625 13.304688 0 11.921875 0 C 11.347656 0 10.835938 -0.132812 10.390625 -0.40625 C 9.941406 -0.675781 9.570312 -1.195312 9.28125 -1.96875 L 0.90625 -24.4375 C 0.84375 -24.5625 0.8125 -24.726562 0.8125 -24.9375 C 0.8125 -25.144531 0.859375 -25.34375 0.953125 -25.53125 C 1.054688 -25.726562 1.1875 -25.910156 1.34375 -26.078125 C 1.632812 -26.328125 1.988281 -26.453125 2.40625 -26.453125 C 3.207031 -26.453125 3.738281 -26.097656 4 -25.390625 Z M 12.03125 -2.84375 "/></g></g></g><g fill="#ffffff" fill-opacity="1"><g transform="translate(189.782474, 74.949993)"><g><path d="M 11.59375 -11.203125 L 13.703125 -11.15625 L 13.703125 -12.75 C 13.703125 -15.25 12.289062 -16.5 9.46875 -16.5 C 8.15625 -16.5 7.210938 -16.382812 6.640625 -16.15625 C 5.960938 -15.90625 5.316406 -15.609375 4.703125 -15.265625 C 4.097656 -14.929688 3.660156 -14.765625 3.390625 -14.765625 C 3.117188 -14.765625 2.878906 -14.867188 2.671875 -15.078125 C 2.460938 -15.285156 2.359375 -15.535156 2.359375 -15.828125 C 2.359375 -16.117188 2.484375 -16.375 2.734375 -16.59375 C 4.273438 -18.070312 6.554688 -18.8125 9.578125 -18.8125 C 12.941406 -18.8125 15.101562 -17.65625 16.0625 -15.34375 C 16.414062 -14.539062 16.59375 -13.59375 16.59375 -12.5 L 16.546875 -1.296875 C 16.546875 -0.847656 16.398438 -0.519531 16.109375 -0.3125 C 15.828125 -0.101562 15.5 0 15.125 0 C 14.757812 0 14.429688 -0.101562 14.140625 -0.3125 C 13.847656 -0.519531 13.703125 -0.832031 13.703125 -1.25 L 13.703125 -2.984375 C 12.929688 -1.347656 11.539062 -0.289062 9.53125 0.1875 C 8.882812 0.320312 8.179688 0.390625 7.421875 0.390625 C 6.671875 0.390625 5.910156 0.265625 5.140625 0.015625 C 4.378906 -0.222656 3.707031 -0.582031 3.125 -1.0625 C 1.90625 -2.019531 1.296875 -3.363281 1.296875 -5.09375 C 1.296875 -9.164062 4.726562 -11.203125 11.59375 -11.203125 Z M 13.703125 -9 C 13.160156 -8.96875 12.546875 -8.953125 11.859375 -8.953125 C 11.171875 -8.953125 10.476562 -8.929688 9.78125 -8.890625 C 9.09375 -8.859375 8.421875 -8.78125 7.765625 -8.65625 C 7.109375 -8.53125 6.523438 -8.335938 6.015625 -8.078125 C 4.859375 -7.441406 4.28125 -6.476562 4.28125 -5.1875 C 4.28125 -4.164062 4.679688 -3.332031 5.484375 -2.6875 C 6.128906 -2.207031 7.054688 -1.9375 8.265625 -1.875 C 9.742188 -1.875 11 -2.335938 12.03125 -3.265625 C 13.082031 -4.203125 13.640625 -5.566406 13.703125 -7.359375 Z M 13.703125 -9 "/></g></g></g><g fill="#ffffff" fill-opacity="1"><g transform="translate(209.115172, 74.949993)"><g><path d="M 2.9375 -24.96875 C 2.9375 -25.445312 3.085938 -25.8125 3.390625 -26.0625 C 3.691406 -26.320312 3.988281 -26.453125 4.28125 -26.453125 C 4.570312 -26.453125 4.796875 -26.421875 4.953125 -26.359375 C 5.109375 -26.296875 5.253906 -26.203125 5.390625 -26.078125 C 5.710938 -25.816406 5.875 -25.445312 5.875 -24.96875 L 5.875 -1.484375 C 5.875 -1.003906 5.710938 -0.632812 5.390625 -0.375 C 5.066406 -0.125 4.71875 0 4.34375 0 C 3.976562 0 3.648438 -0.117188 3.359375 -0.359375 C 3.078125 -0.597656 2.9375 -0.972656 2.9375 -1.484375 Z M 2.9375 -24.96875 "/></g></g></g><g fill="#ffffff" fill-opacity="1"><g transform="translate(217.867784, 74.949993)"><g><path d="M 2.9375 -24.96875 C 2.9375 -25.445312 3.085938 -25.8125 3.390625 -26.0625 C 3.691406 -26.320312 3.988281 -26.453125 4.28125 -26.453125 C 4.570312 -26.453125 4.796875 -26.421875 4.953125 -26.359375 C 5.109375 -26.296875 5.253906 -26.203125 5.390625 -26.078125 C 5.710938 -25.816406 5.875 -25.445312 5.875 -24.96875 L 5.875 -1.484375 C 5.875 -1.003906 5.710938 -0.632812 5.390625 -0.375 C 5.066406 -0.125 4.71875 0 4.34375 0 C 3.976562 0 3.648438 -0.117188 3.359375 -0.359375 C 3.078125 -0.597656 2.9375 -0.972656 2.9375 -1.484375 Z M 2.9375 -24.96875 "/></g></g></g><g fill="#ffffff" fill-opacity="1"><g transform="translate(226.620397, 74.949993)"><g><path d="M 19.34375 -9.765625 C 19.34375 -9.472656 19.242188 -9.222656 19.046875 -9.015625 C 18.859375 -8.804688 18.554688 -8.703125 18.140625 -8.703125 L 4.859375 -8.703125 C 4.921875 -6.328125 5.546875 -4.613281 6.734375 -3.5625 C 7.984375 -2.4375 9.425781 -1.875 11.0625 -1.875 C 12.789062 -1.875 14.632812 -2.515625 16.59375 -3.796875 C 16.851562 -3.992188 17.117188 -4.09375 17.390625 -4.09375 C 17.660156 -4.09375 17.875 -3.992188 18.03125 -3.796875 C 18.195312 -3.609375 18.28125 -3.414062 18.28125 -3.21875 C 18.28125 -2.832031 18.148438 -2.515625 17.890625 -2.265625 C 16.003906 -0.492188 13.648438 0.390625 10.828125 0.390625 C 8.191406 0.390625 6.054688 -0.460938 4.421875 -2.171875 C 2.628906 -3.992188 1.734375 -6.332031 1.734375 -9.1875 C 1.734375 -11.851562 2.488281 -14.082031 4 -15.875 C 5.632812 -17.832031 7.8125 -18.8125 10.53125 -18.8125 C 13.382812 -18.8125 15.582031 -17.941406 17.125 -16.203125 C 18.53125 -14.609375 19.269531 -12.460938 19.34375 -9.765625 Z M 16.40625 -10.625 C 16.269531 -12.425781 15.722656 -13.851562 14.765625 -14.90625 C 13.804688 -15.96875 12.410156 -16.5 10.578125 -16.5 C 8.972656 -16.5 7.660156 -15.921875 6.640625 -14.765625 C 5.640625 -13.640625 5.078125 -12.257812 4.953125 -10.625 Z M 16.40625 -10.625 "/></g></g></g><g fill="#ffffff" fill-opacity="1"><g transform="translate(247.588203, 74.949993)"><g><path d="M -0.09375 6.640625 C -0.601562 6.578125 -0.859375 6.253906 -0.859375 5.671875 C -0.859375 5.421875 -0.78125 5.191406 -0.625 4.984375 C -0.46875 4.773438 -0.140625 4.671875 0.359375 4.671875 C 0.859375 4.671875 1.289062 4.632812 1.65625 4.5625 C 2.03125 4.5 2.3125 4.359375 2.5 4.140625 C 2.789062 3.816406 2.9375 2.882812 2.9375 1.34375 L 2.9375 -16.890625 C 2.9375 -17.367188 3.09375 -17.734375 3.40625 -17.984375 C 3.726562 -18.242188 4.035156 -18.375 4.328125 -18.375 C 4.617188 -18.375 4.851562 -18.34375 5.03125 -18.28125 C 5.207031 -18.21875 5.359375 -18.117188 5.484375 -17.984375 C 5.773438 -17.765625 5.921875 -17.398438 5.921875 -16.890625 L 5.921875 0.625 C 5.921875 1.78125 5.878906 2.757812 5.796875 3.5625 C 5.710938 4.363281 5.507812 5.003906 5.1875 5.484375 C 4.550781 6.441406 3.144531 6.921875 0.96875 6.921875 C 0.644531 6.921875 0.382812 6.878906 0.1875 6.796875 C 0 6.722656 -0.09375 6.671875 -0.09375 6.640625 Z M 6.453125 -24.765625 C 6.453125 -24.316406 6.273438 -23.925781 5.921875 -23.59375 C 5.566406 -23.257812 5.066406 -23.09375 4.421875 -23.09375 C 3.785156 -23.09375 3.296875 -23.257812 2.953125 -23.59375 C 2.617188 -23.925781 2.453125 -24.316406 2.453125 -24.765625 C 2.453125 -25.222656 2.628906 -25.625 2.984375 -25.96875 C 3.335938 -26.320312 3.828125 -26.5 4.453125 -26.5 C 5.078125 -26.5 5.566406 -26.320312 5.921875 -25.96875 C 6.273438 -25.625 6.453125 -25.222656 6.453125 -24.765625 Z M 6.453125 -24.765625 "/></g></g></g><g fill="#ffffff" fill-opacity="1"><g transform="translate(256.388904, 74.949993)"><g><path d="M 1.59375 -9.140625 C 1.59375 -10.296875 1.773438 -11.46875 2.140625 -12.65625 C 2.503906 -13.84375 3.070312 -14.882812 3.84375 -15.78125 C 5.507812 -17.800781 7.820312 -18.8125 10.78125 -18.8125 C 13.664062 -18.8125 15.972656 -17.800781 17.703125 -15.78125 C 19.210938 -14.007812 19.96875 -11.8125 19.96875 -9.1875 C 19.96875 -6.59375 19.210938 -4.394531 17.703125 -2.59375 C 16.003906 -0.601562 13.695312 0.390625 10.78125 0.390625 C 7.789062 0.390625 5.476562 -0.601562 3.84375 -2.59375 C 2.34375 -4.425781 1.59375 -6.609375 1.59375 -9.140625 Z M 4.765625 -9.140625 C 4.765625 -8.367188 4.875 -7.550781 5.09375 -6.6875 C 5.320312 -5.820312 5.675781 -5.035156 6.15625 -4.328125 C 7.28125 -2.691406 8.820312 -1.875 10.78125 -1.875 C 12.757812 -1.875 14.296875 -2.691406 15.390625 -4.328125 C 16.285156 -5.703125 16.734375 -7.320312 16.734375 -9.1875 C 16.734375 -11.007812 16.285156 -12.628906 15.390625 -14.046875 C 14.335938 -15.679688 12.800781 -16.5 10.78125 -16.5 C 8.789062 -16.5 7.25 -15.679688 6.15625 -14.046875 C 5.226562 -12.671875 4.765625 -11.035156 4.765625 -9.140625 Z M 4.765625 -9.140625 "/></g></g></g><g fill="#ffffff" fill-opacity="1"><g transform="translate(277.93379, 74.949993)"><g><path d="M 9.46875 -16.5 C 6.6875 -16.5 5.296875 -15.617188 5.296875 -13.859375 C 5.296875 -13.085938 5.679688 -12.476562 6.453125 -12.03125 C 7.023438 -11.738281 8.207031 -11.375 10 -10.9375 C 11.800781 -10.507812 13.164062 -10.148438 14.09375 -9.859375 C 15.019531 -9.566406 15.785156 -9.035156 16.390625 -8.265625 C 17.003906 -7.503906 17.3125 -6.601562 17.3125 -5.5625 C 17.3125 -4.519531 17.085938 -3.617188 16.640625 -2.859375 C 16.191406 -2.109375 15.582031 -1.492188 14.8125 -1.015625 C 13.375 -0.078125 11.5 0.390625 9.1875 0.390625 C 7.425781 0.390625 5.804688 0.0976562 4.328125 -0.484375 C 3.648438 -0.765625 3.101562 -1.082031 2.6875 -1.4375 C 2.269531 -1.789062 2.0625 -2.117188 2.0625 -2.421875 C 2.0625 -2.734375 2.171875 -2.992188 2.390625 -3.203125 C 2.617188 -3.410156 2.878906 -3.515625 3.171875 -3.515625 C 3.460938 -3.515625 3.800781 -3.425781 4.1875 -3.25 C 4.570312 -3.070312 5.035156 -2.882812 5.578125 -2.6875 C 7.054688 -2.144531 8.257812 -1.875 9.1875 -1.875 C 10.113281 -1.875 10.847656 -1.9375 11.390625 -2.0625 C 11.941406 -2.195312 12.441406 -2.40625 12.890625 -2.6875 C 13.847656 -3.300781 14.328125 -4.132812 14.328125 -5.1875 C 14.328125 -6.40625 13.476562 -7.304688 11.78125 -7.890625 C 11.144531 -8.109375 10.457031 -8.289062 9.71875 -8.4375 C 8.976562 -8.582031 8.253906 -8.734375 7.546875 -8.890625 C 6.847656 -9.054688 6.1875 -9.25 5.5625 -9.46875 C 4.9375 -9.695312 4.363281 -10.003906 3.84375 -10.390625 C 2.789062 -11.160156 2.265625 -12.265625 2.265625 -13.703125 C 2.265625 -15.472656 3.015625 -16.804688 4.515625 -17.703125 C 5.765625 -18.441406 7.453125 -18.8125 9.578125 -18.8125 C 11.628906 -18.8125 13.296875 -18.472656 14.578125 -17.796875 C 15.628906 -17.253906 16.15625 -16.675781 16.15625 -16.0625 C 16.15625 -15.8125 16.039062 -15.585938 15.8125 -15.390625 C 15.59375 -15.203125 15.375 -15.109375 15.15625 -15.109375 C 14.738281 -15.109375 14.390625 -15.195312 14.109375 -15.375 C 13.835938 -15.550781 13.550781 -15.707031 13.25 -15.84375 C 12.945312 -15.988281 12.601562 -16.109375 12.21875 -16.203125 C 11.476562 -16.398438 10.5625 -16.5 9.46875 -16.5 Z M 9.46875 -16.5 "/></g></g></g><g fill="#ffffff" fill-opacity="1"><g transform="translate(87.593745, 313.405935)"><g><path d="M 7 0 L 5.171875 0 L 5.171875 -14.078125 L 0.1875 -14.078125 L 0.1875 -15.703125 L 11.96875 -15.703125 L 11.96875 -14.078125 L 7 -14.078125 Z M 7 0 "/></g></g></g><g fill="#ffffff" fill-opacity="1"><g transform="translate(99.762487, 313.405935)"><g><path d="M 6.859375 0.21875 C 5.117188 0.21875 3.742188 -0.3125 2.734375 -1.375 C 1.734375 -2.4375 1.234375 -3.910156 1.234375 -5.796875 C 1.234375 -7.691406 1.703125 -9.195312 2.640625 -10.3125 C 3.578125 -11.425781 4.832031 -11.984375 6.40625 -11.984375 C 7.875 -11.984375 9.035156 -11.5 9.890625 -10.53125 C 10.753906 -9.5625 11.1875 -8.28125 11.1875 -6.6875 L 11.1875 -5.5625 L 3.078125 -5.5625 C 3.117188 -4.175781 3.46875 -3.125 4.125 -2.40625 C 4.789062 -1.695312 5.722656 -1.34375 6.921875 -1.34375 C 8.191406 -1.34375 9.445312 -1.609375 10.6875 -2.140625 L 10.6875 -0.546875 C 10.0625 -0.273438 9.46875 -0.0820312 8.90625 0.03125 C 8.34375 0.15625 7.660156 0.21875 6.859375 0.21875 Z M 6.375 -10.5 C 5.4375 -10.5 4.6875 -10.1875 4.125 -9.5625 C 3.5625 -8.945312 3.226562 -8.097656 3.125 -7.015625 L 9.28125 -7.015625 C 9.28125 -8.140625 9.03125 -9 8.53125 -9.59375 C 8.03125 -10.195312 7.3125 -10.5 6.375 -10.5 Z M 6.375 -10.5 "/></g></g></g><g fill="#ffffff" fill-opacity="1"><g transform="translate(112.103074, 313.405935)"><g><path d="M 7.265625 -11.984375 C 7.785156 -11.984375 8.253906 -11.941406 8.671875 -11.859375 L 8.421875 -10.203125 C 7.929688 -10.304688 7.503906 -10.359375 7.140625 -10.359375 C 6.179688 -10.359375 5.363281 -9.972656 4.6875 -9.203125 C 4.007812 -8.429688 3.671875 -7.46875 3.671875 -6.3125 L 3.671875 0 L 1.890625 0 L 1.890625 -11.78125 L 3.359375 -11.78125 L 3.5625 -9.59375 L 3.65625 -9.59375 C 4.09375 -10.363281 4.617188 -10.953125 5.234375 -11.359375 C 5.847656 -11.773438 6.523438 -11.984375 7.265625 -11.984375 Z M 7.265625 -11.984375 "/></g></g></g><g fill="#ffffff" fill-opacity="1"><g transform="translate(121.081948, 313.405935)"><g><path d="M 9.125 0 L 8.78125 -1.671875 L 8.6875 -1.671875 C 8.101562 -0.929688 7.519531 -0.429688 6.9375 -0.171875 C 6.351562 0.0859375 5.625 0.21875 4.75 0.21875 C 3.582031 0.21875 2.664062 -0.0820312 2 -0.6875 C 1.34375 -1.289062 1.015625 -2.144531 1.015625 -3.25 C 1.015625 -5.632812 2.914062 -6.882812 6.71875 -7 L 8.71875 -7.0625 L 8.71875 -7.78125 C 8.71875 -8.707031 8.515625 -9.390625 8.109375 -9.828125 C 7.710938 -10.273438 7.078125 -10.5 6.203125 -10.5 C 5.222656 -10.5 4.113281 -10.195312 2.875 -9.59375 L 2.328125 -10.953125 C 2.910156 -11.273438 3.546875 -11.523438 4.234375 -11.703125 C 4.929688 -11.878906 5.625 -11.96875 6.3125 -11.96875 C 7.71875 -11.96875 8.757812 -11.65625 9.4375 -11.03125 C 10.113281 -10.40625 10.453125 -9.40625 10.453125 -8.03125 L 10.453125 0 Z M 5.109375 -1.25 C 6.210938 -1.25 7.082031 -1.550781 7.71875 -2.15625 C 8.351562 -2.769531 8.671875 -3.628906 8.671875 -4.734375 L 8.671875 -5.796875 L 6.890625 -5.71875 C 5.472656 -5.664062 4.445312 -5.441406 3.8125 -5.046875 C 3.1875 -4.660156 2.875 -4.054688 2.875 -3.234375 C 2.875 -2.585938 3.066406 -2.09375 3.453125 -1.75 C 3.847656 -1.414062 4.398438 -1.25 5.109375 -1.25 Z M 5.109375 -1.25 "/></g></g></g><g fill="#ffffff" fill-opacity="1"><g transform="translate(133.315132, 313.405935)"><g><path d="M 7.375 0.21875 C 6.601562 0.21875 5.898438 0.078125 5.265625 -0.203125 C 4.628906 -0.492188 4.097656 -0.929688 3.671875 -1.515625 L 3.546875 -1.515625 C 3.628906 -0.828125 3.671875 -0.175781 3.671875 0.4375 L 3.671875 5.28125 L 1.890625 5.28125 L 1.890625 -11.78125 L 3.34375 -11.78125 L 3.59375 -10.15625 L 3.671875 -10.15625 C 4.128906 -10.800781 4.660156 -11.265625 5.265625 -11.546875 C 5.878906 -11.835938 6.582031 -11.984375 7.375 -11.984375 C 8.9375 -11.984375 10.140625 -11.445312 10.984375 -10.375 C 11.828125 -9.3125 12.25 -7.816406 12.25 -5.890625 C 12.25 -3.960938 11.816406 -2.460938 10.953125 -1.390625 C 10.097656 -0.316406 8.90625 0.21875 7.375 0.21875 Z M 7.109375 -10.46875 C 5.910156 -10.46875 5.039062 -10.132812 4.5 -9.46875 C 3.96875 -8.800781 3.691406 -7.742188 3.671875 -6.296875 L 3.671875 -5.890625 C 3.671875 -4.242188 3.945312 -3.0625 4.5 -2.34375 C 5.050781 -1.632812 5.9375 -1.28125 7.15625 -1.28125 C 8.175781 -1.28125 8.972656 -1.691406 9.546875 -2.515625 C 10.117188 -3.335938 10.40625 -4.472656 10.40625 -5.921875 C 10.40625 -7.390625 10.117188 -8.515625 9.546875 -9.296875 C 8.972656 -10.078125 8.160156 -10.46875 7.109375 -10.46875 Z M 7.109375 -10.46875 "/></g></g></g><g fill="#ffffff" fill-opacity="1"><g transform="translate(146.794188, 313.405935)"><g><path d="M 3.671875 0 L 1.890625 0 L 1.890625 -11.78125 L 3.671875 -11.78125 Z M 1.734375 -14.96875 C 1.734375 -15.375 1.832031 -15.671875 2.03125 -15.859375 C 2.238281 -16.046875 2.492188 -16.140625 2.796875 -16.140625 C 3.078125 -16.140625 3.320312 -16.039062 3.53125 -15.84375 C 3.738281 -15.65625 3.84375 -15.363281 3.84375 -14.96875 C 3.84375 -14.5625 3.738281 -14.257812 3.53125 -14.0625 C 3.320312 -13.863281 3.078125 -13.765625 2.796875 -13.765625 C 2.492188 -13.765625 2.238281 -13.863281 2.03125 -14.0625 C 1.832031 -14.257812 1.734375 -14.5625 1.734375 -14.96875 Z M 1.734375 -14.96875 "/></g></g></g><g fill="#ffffff" fill-opacity="1"><g transform="translate(152.357652, 313.405935)"><g><path d="M 9.125 0 L 8.78125 -1.671875 L 8.6875 -1.671875 C 8.101562 -0.929688 7.519531 -0.429688 6.9375 -0.171875 C 6.351562 0.0859375 5.625 0.21875 4.75 0.21875 C 3.582031 0.21875 2.664062 -0.0820312 2 -0.6875 C 1.34375 -1.289062 1.015625 -2.144531 1.015625 -3.25 C 1.015625 -5.632812 2.914062 -6.882812 6.71875 -7 L 8.71875 -7.0625 L 8.71875 -7.78125 C 8.71875 -8.707031 8.515625 -9.390625 8.109375 -9.828125 C 7.710938 -10.273438 7.078125 -10.5 6.203125 -10.5 C 5.222656 -10.5 4.113281 -10.195312 2.875 -9.59375 L 2.328125 -10.953125 C 2.910156 -11.273438 3.546875 -11.523438 4.234375 -11.703125 C 4.929688 -11.878906 5.625 -11.96875 6.3125 -11.96875 C 7.71875 -11.96875 8.757812 -11.65625 9.4375 -11.03125 C 10.113281 -10.40625 10.453125 -9.40625 10.453125 -8.03125 L 10.453125 0 Z M 5.109375 -1.25 C 6.210938 -1.25 7.082031 -1.550781 7.71875 -2.15625 C 8.351562 -2.769531 8.671875 -3.628906 8.671875 -4.734375 L 8.671875 -5.796875 L 6.890625 -5.71875 C 5.472656 -5.664062 4.445312 -5.441406 3.8125 -5.046875 C 3.1875 -4.660156 2.875 -4.054688 2.875 -3.234375 C 2.875 -2.585938 3.066406 -2.09375 3.453125 -1.75 C 3.847656 -1.414062 4.398438 -1.25 5.109375 -1.25 Z M 5.109375 -1.25 "/></g></g></g><g fill="#ffffff" fill-opacity="1"><g transform="translate(164.590836, 313.405935)"><g><path d="M 9.484375 -3.21875 C 9.484375 -2.113281 9.070312 -1.265625 8.25 -0.671875 C 7.4375 -0.078125 6.296875 0.21875 4.828125 0.21875 C 3.265625 0.21875 2.046875 -0.03125 1.171875 -0.53125 L 1.171875 -2.1875 C 1.734375 -1.894531 2.335938 -1.664062 2.984375 -1.5 C 3.640625 -1.332031 4.265625 -1.25 4.859375 -1.25 C 5.796875 -1.25 6.515625 -1.398438 7.015625 -1.703125 C 7.515625 -2.003906 7.765625 -2.457031 7.765625 -3.0625 C 7.765625 -3.519531 7.566406 -3.910156 7.171875 -4.234375 C 6.773438 -4.566406 6 -4.953125 4.84375 -5.390625 C 3.75 -5.796875 2.96875 -6.148438 2.5 -6.453125 C 2.039062 -6.765625 1.695312 -7.113281 1.46875 -7.5 C 1.25 -7.882812 1.140625 -8.347656 1.140625 -8.890625 C 1.140625 -9.847656 1.53125 -10.601562 2.3125 -11.15625 C 3.09375 -11.707031 4.160156 -11.984375 5.515625 -11.984375 C 6.785156 -11.984375 8.023438 -11.726562 9.234375 -11.21875 L 8.609375 -9.765625 C 7.421875 -10.253906 6.347656 -10.5 5.390625 -10.5 C 4.546875 -10.5 3.910156 -10.363281 3.484375 -10.09375 C 3.054688 -9.832031 2.84375 -9.46875 2.84375 -9 C 2.84375 -8.6875 2.921875 -8.414062 3.078125 -8.1875 C 3.234375 -7.96875 3.488281 -7.757812 3.84375 -7.5625 C 4.207031 -7.363281 4.898438 -7.070312 5.921875 -6.6875 C 7.316406 -6.1875 8.257812 -5.675781 8.75 -5.15625 C 9.238281 -4.644531 9.484375 -4 9.484375 -3.21875 Z M 9.484375 -3.21875 "/></g></g></g><g fill="#ffffff" fill-opacity="1"><g transform="translate(175.084095, 313.405935)"><g/></g></g><g fill="#ffffff" fill-opacity="1"><g transform="translate(180.797924, 313.405935)"><g><path d="M 9.125 0 L 8.78125 -1.671875 L 8.6875 -1.671875 C 8.101562 -0.929688 7.519531 -0.429688 6.9375 -0.171875 C 6.351562 0.0859375 5.625 0.21875 4.75 0.21875 C 3.582031 0.21875 2.664062 -0.0820312 2 -0.6875 C 1.34375 -1.289062 1.015625 -2.144531 1.015625 -3.25 C 1.015625 -5.632812 2.914062 -6.882812 6.71875 -7 L 8.71875 -7.0625 L 8.71875 -7.78125 C 8.71875 -8.707031 8.515625 -9.390625 8.109375 -9.828125 C 7.710938 -10.273438 7.078125 -10.5 6.203125 -10.5 C 5.222656 -10.5 4.113281 -10.195312 2.875 -9.59375 L 2.328125 -10.953125 C 2.910156 -11.273438 3.546875 -11.523438 4.234375 -11.703125 C 4.929688 -11.878906 5.625 -11.96875 6.3125 -11.96875 C 7.71875 -11.96875 8.757812 -11.65625 9.4375 -11.03125 C 10.113281 -10.40625 10.453125 -9.40625 10.453125 -8.03125 L 10.453125 0 Z M 5.109375 -1.25 C 6.210938 -1.25 7.082031 -1.550781 7.71875 -2.15625 C 8.351562 -2.769531 8.671875 -3.628906 8.671875 -4.734375 L 8.671875 -5.796875 L 6.890625 -5.71875 C 5.472656 -5.664062 4.445312 -5.441406 3.8125 -5.046875 C 3.1875 -4.660156 2.875 -4.054688 2.875 -3.234375 C 2.875 -2.585938 3.066406 -2.09375 3.453125 -1.75 C 3.847656 -1.414062 4.398438 -1.25 5.109375 -1.25 Z M 5.109375 -1.25 "/></g></g></g><g fill="#ffffff" fill-opacity="1"><g transform="translate(193.031108, 313.405935)"><g><path d="M 3.671875 0 L 1.890625 0 L 1.890625 -16.71875 L 3.671875 -16.71875 Z M 3.671875 0 "/></g></g></g><g fill="#ffffff" fill-opacity="1"><g transform="translate(198.594573, 313.405935)"><g><path d="M 5.6875 -1.25 C 6.007812 -1.25 6.316406 -1.269531 6.609375 -1.3125 C 6.898438 -1.363281 7.132812 -1.414062 7.3125 -1.46875 L 7.3125 -0.109375 C 7.113281 -0.015625 6.828125 0.0625 6.453125 0.125 C 6.078125 0.1875 5.738281 0.21875 5.4375 0.21875 C 3.15625 0.21875 2.015625 -0.984375 2.015625 -3.390625 L 2.015625 -10.390625 L 0.328125 -10.390625 L 0.328125 -11.25 L 2.015625 -11.984375 L 2.765625 -14.5 L 3.796875 -14.5 L 3.796875 -11.78125 L 7.21875 -11.78125 L 7.21875 -10.390625 L 3.796875 -10.390625 L 3.796875 -3.453125 C 3.796875 -2.742188 3.960938 -2.195312 4.296875 -1.8125 C 4.640625 -1.4375 5.101562 -1.25 5.6875 -1.25 Z M 5.6875 -1.25 "/></g></g></g><g fill="#ffffff" fill-opacity="1"><g transform="translate(206.3598, 313.405935)"><g><path d="M 6.859375 0.21875 C 5.117188 0.21875 3.742188 -0.3125 2.734375 -1.375 C 1.734375 -2.4375 1.234375 -3.910156 1.234375 -5.796875 C 1.234375 -7.691406 1.703125 -9.195312 2.640625 -10.3125 C 3.578125 -11.425781 4.832031 -11.984375 6.40625 -11.984375 C 7.875 -11.984375 9.035156 -11.5 9.890625 -10.53125 C 10.753906 -9.5625 11.1875 -8.28125 11.1875 -6.6875 L 11.1875 -5.5625 L 3.078125 -5.5625 C 3.117188 -4.175781 3.46875 -3.125 4.125 -2.40625 C 4.789062 -1.695312 5.722656 -1.34375 6.921875 -1.34375 C 8.191406 -1.34375 9.445312 -1.609375 10.6875 -2.140625 L 10.6875 -0.546875 C 10.0625 -0.273438 9.46875 -0.0820312 8.90625 0.03125 C 8.34375 0.15625 7.660156 0.21875 6.859375 0.21875 Z M 6.375 -10.5 C 5.4375 -10.5 4.6875 -10.1875 4.125 -9.5625 C 3.5625 -8.945312 3.226562 -8.097656 3.125 -7.015625 L 9.28125 -7.015625 C 9.28125 -8.140625 9.03125 -9 8.53125 -9.59375 C 8.03125 -10.195312 7.3125 -10.5 6.375 -10.5 Z M 6.375 -10.5 "/></g></g></g><g fill="#ffffff" fill-opacity="1"><g transform="translate(218.700387, 313.405935)"><g><path d="M 7.265625 -11.984375 C 7.785156 -11.984375 8.253906 -11.941406 8.671875 -11.859375 L 8.421875 -10.203125 C 7.929688 -10.304688 7.503906 -10.359375 7.140625 -10.359375 C 6.179688 -10.359375 5.363281 -9.972656 4.6875 -9.203125 C 4.007812 -8.429688 3.671875 -7.46875 3.671875 -6.3125 L 3.671875 0 L 1.890625 0 L 1.890625 -11.78125 L 3.359375 -11.78125 L 3.5625 -9.59375 L 3.65625 -9.59375 C 4.09375 -10.363281 4.617188 -10.953125 5.234375 -11.359375 C 5.847656 -11.773438 6.523438 -11.984375 7.265625 -11.984375 Z M 7.265625 -11.984375 "/></g></g></g><g fill="#ffffff" fill-opacity="1"><g transform="translate(227.679261, 313.405935)"><g><path d="M 9.953125 0 L 9.953125 -7.609375 C 9.953125 -8.578125 9.734375 -9.296875 9.296875 -9.765625 C 8.859375 -10.234375 8.171875 -10.46875 7.234375 -10.46875 C 6.003906 -10.46875 5.101562 -10.132812 4.53125 -9.46875 C 3.957031 -8.800781 3.671875 -7.703125 3.671875 -6.171875 L 3.671875 0 L 1.890625 0 L 1.890625 -11.78125 L 3.34375 -11.78125 L 3.625 -10.15625 L 3.71875 -10.15625 C 4.082031 -10.738281 4.59375 -11.1875 5.25 -11.5 C 5.90625 -11.820312 6.640625 -11.984375 7.453125 -11.984375 C 8.867188 -11.984375 9.9375 -11.640625 10.65625 -10.953125 C 11.375 -10.273438 11.734375 -9.1875 11.734375 -7.6875 L 11.734375 0 Z M 9.953125 0 "/></g></g></g><g fill="#ffffff" fill-opacity="1"><g transform="translate(241.179798, 313.405935)"><g><path d="M 9.125 0 L 8.78125 -1.671875 L 8.6875 -1.671875 C 8.101562 -0.929688 7.519531 -0.429688 6.9375 -0.171875 C 6.351562 0.0859375 5.625 0.21875 4.75 0.21875 C 3.582031 0.21875 2.664062 -0.0820312 2 -0.6875 C 1.34375 -1.289062 1.015625 -2.144531 1.015625 -3.25 C 1.015625 -5.632812 2.914062 -6.882812 6.71875 -7 L 8.71875 -7.0625 L 8.71875 -7.78125 C 8.71875 -8.707031 8.515625 -9.390625 8.109375 -9.828125 C 7.710938 -10.273438 7.078125 -10.5 6.203125 -10.5 C 5.222656 -10.5 4.113281 -10.195312 2.875 -9.59375 L 2.328125 -10.953125 C 2.910156 -11.273438 3.546875 -11.523438 4.234375 -11.703125 C 4.929688 -11.878906 5.625 -11.96875 6.3125 -11.96875 C 7.71875 -11.96875 8.757812 -11.65625 9.4375 -11.03125 C 10.113281 -10.40625 10.453125 -9.40625 10.453125 -8.03125 L 10.453125 0 Z M 5.109375 -1.25 C 6.210938 -1.25 7.082031 -1.550781 7.71875 -2.15625 C 8.351562 -2.769531 8.671875 -3.628906 8.671875 -4.734375 L 8.671875 -5.796875 L 6.890625 -5.71875 C 5.472656 -5.664062 4.445312 -5.441406 3.8125 -5.046875 C 3.1875 -4.660156 2.875 -4.054688 2.875 -3.234375 C 2.875 -2.585938 3.066406 -2.09375 3.453125 -1.75 C 3.847656 -1.414062 4.398438 -1.25 5.109375 -1.25 Z M 5.109375 -1.25 "/></g></g></g><g fill="#ffffff" fill-opacity="1"><g transform="translate(253.412982, 313.405935)"><g><path d="M 5.6875 -1.25 C 6.007812 -1.25 6.316406 -1.269531 6.609375 -1.3125 C 6.898438 -1.363281 7.132812 -1.414062 7.3125 -1.46875 L 7.3125 -0.109375 C 7.113281 -0.015625 6.828125 0.0625 6.453125 0.125 C 6.078125 0.1875 5.738281 0.21875 5.4375 0.21875 C 3.15625 0.21875 2.015625 -0.984375 2.015625 -3.390625 L 2.015625 -10.390625 L 0.328125 -10.390625 L 0.328125 -11.25 L 2.015625 -11.984375 L 2.765625 -14.5 L 3.796875 -14.5 L 3.796875 -11.78125 L 7.21875 -11.78125 L 7.21875 -10.390625 L 3.796875 -10.390625 L 3.796875 -3.453125 C 3.796875 -2.742188 3.960938 -2.195312 4.296875 -1.8125 C 4.640625 -1.4375 5.101562 -1.25 5.6875 -1.25 Z M 5.6875 -1.25 "/></g></g></g><g fill="#ffffff" fill-opacity="1"><g transform="translate(261.178209, 313.405935)"><g><path d="M 3.671875 0 L 1.890625 0 L 1.890625 -11.78125 L 3.671875 -11.78125 Z M 1.734375 -14.96875 C 1.734375 -15.375 1.832031 -15.671875 2.03125 -15.859375 C 2.238281 -16.046875 2.492188 -16.140625 2.796875 -16.140625 C 3.078125 -16.140625 3.320312 -16.039062 3.53125 -15.84375 C 3.738281 -15.65625 3.84375 -15.363281 3.84375 -14.96875 C 3.84375 -14.5625 3.738281 -14.257812 3.53125 -14.0625 C 3.320312 -13.863281 3.078125 -13.765625 2.796875 -13.765625 C 2.492188 -13.765625 2.238281 -13.863281 2.03125 -14.0625 C 1.832031 -14.257812 1.734375 -14.5625 1.734375 -14.96875 Z M 1.734375 -14.96875 "/></g></g></g><g fill="#ffffff" fill-opacity="1"><g transform="translate(266.741674, 313.405935)"><g><path d="M 4.46875 0 L 0 -11.78125 L 1.90625 -11.78125 L 4.453125 -4.796875 C 5.023438 -3.160156 5.359375 -2.097656 5.453125 -1.609375 L 5.546875 -1.609375 C 5.617188 -1.992188 5.863281 -2.78125 6.28125 -3.96875 C 6.707031 -5.164062 7.648438 -7.769531 9.109375 -11.78125 L 11.015625 -11.78125 L 6.546875 0 Z M 4.46875 0 "/></g></g></g><g fill="#ffffff" fill-opacity="1"><g transform="translate(277.761201, 313.405935)"><g><path d="M 9.125 0 L 8.78125 -1.671875 L 8.6875 -1.671875 C 8.101562 -0.929688 7.519531 -0.429688 6.9375 -0.171875 C 6.351562 0.0859375 5.625 0.21875 4.75 0.21875 C 3.582031 0.21875 2.664062 -0.0820312 2 -0.6875 C 1.34375 -1.289062 1.015625 -2.144531 1.015625 -3.25 C 1.015625 -5.632812 2.914062 -6.882812 6.71875 -7 L 8.71875 -7.0625 L 8.71875 -7.78125 C 8.71875 -8.707031 8.515625 -9.390625 8.109375 -9.828125 C 7.710938 -10.273438 7.078125 -10.5 6.203125 -10.5 C 5.222656 -10.5 4.113281 -10.195312 2.875 -9.59375 L 2.328125 -10.953125 C 2.910156 -11.273438 3.546875 -11.523438 4.234375 -11.703125 C 4.929688 -11.878906 5.625 -11.96875 6.3125 -11.96875 C 7.71875 -11.96875 8.757812 -11.65625 9.4375 -11.03125 C 10.113281 -10.40625 10.453125 -9.40625 10.453125 -8.03125 L 10.453125 0 Z M 5.109375 -1.25 C 6.210938 -1.25 7.082031 -1.550781 7.71875 -2.15625 C 8.351562 -2.769531 8.671875 -3.628906 8.671875 -4.734375 L 8.671875 -5.796875 L 6.890625 -5.71875 C 5.472656 -5.664062 4.445312 -5.441406 3.8125 -5.046875 C 3.1875 -4.660156 2.875 -4.054688 2.875 -3.234375 C 2.875 -2.585938 3.066406 -2.09375 3.453125 -1.75 C 3.847656 -1.414062 4.398438 -1.25 5.109375 -1.25 Z M 5.109375 -1.25 "/></g></g></g><g fill="#ffffff" fill-opacity="1"><g transform="translate(289.994396, 313.405935)"><g><path d="M 9.484375 -3.21875 C 9.484375 -2.113281 9.070312 -1.265625 8.25 -0.671875 C 7.4375 -0.078125 6.296875 0.21875 4.828125 0.21875 C 3.265625 0.21875 2.046875 -0.03125 1.171875 -0.53125 L 1.171875 -2.1875 C 1.734375 -1.894531 2.335938 -1.664062 2.984375 -1.5 C 3.640625 -1.332031 4.265625 -1.25 4.859375 -1.25 C 5.796875 -1.25 6.515625 -1.398438 7.015625 -1.703125 C 7.515625 -2.003906 7.765625 -2.457031 7.765625 -3.0625 C 7.765625 -3.519531 7.566406 -3.910156 7.171875 -4.234375 C 6.773438 -4.566406 6 -4.953125 4.84375 -5.390625 C 3.75 -5.796875 2.96875 -6.148438 2.5 -6.453125 C 2.039062 -6.765625 1.695312 -7.113281 1.46875 -7.5 C 1.25 -7.882812 1.140625 -8.347656 1.140625 -8.890625 C 1.140625 -9.847656 1.53125 -10.601562 2.3125 -11.15625 C 3.09375 -11.707031 4.160156 -11.984375 5.515625 -11.984375 C 6.785156 -11.984375 8.023438 -11.726562 9.234375 -11.21875 L 8.609375 -9.765625 C 7.421875 -10.253906 6.347656 -10.5 5.390625 -10.5 C 4.546875 -10.5 3.910156 -10.363281 3.484375 -10.09375 C 3.054688 -9.832031 2.84375 -9.46875 2.84375 -9 C 2.84375 -8.6875 2.921875 -8.414062 3.078125 -8.1875 C 3.234375 -7.96875 3.488281 -7.757812 3.84375 -7.5625 C 4.207031 -7.363281 4.898438 -7.070312 5.921875 -6.6875 C 7.316406 -6.1875 8.257812 -5.675781 8.75 -5.15625 C 9.238281 -4.644531 9.484375 -4 9.484375 -3.21875 Z M 9.484375 -3.21875 "/></g></g></g></svg>